<?xml version="1.0" encoding="UTF-8"?>
<!DOCTYPE svg PUBLIC "-//W3C//DTD SVG 1.1//EN" "http://www.w3.org/Graphics/SVG/1.1/DTD/svg11.dtd">
<svg xmlns="http://www.w3.org/2000/svg" version="1.1" width="480px" height="190px" style="shape-rendering:geometricPrecision; text-rendering:geometricPrecision; image-rendering:optimizeQuality; fill-rule:evenodd; clip-rule:evenodd" xmlns:xlink="http://www.w3.org/1999/xlink">
<g><path style="opacity:0.996" fill="#f09dcd" d="M 116.5,2.5 C 111.102,2.04318 105.936,2.70985 101,4.5C 99.6244,4.31577 98.7911,3.64911 98.5,2.5C 99.1174,2.61071 99.6174,2.94404 100,3.5C 105.462,0.16145 110.962,-0.171883 116.5,2.5 Z"/></g>
<g><path style="opacity:0.988" fill="#f3bdde" d="M 117.5,2.5 C 119.754,3.1237 121.421,4.45703 122.5,6.5C 120.205,5.86446 118.539,4.53112 117.5,2.5 Z"/></g>
<g><path style="opacity:0.804" fill="#f2aed9" d="M 82.5,3.5 C 81.1667,5.5 79.5,7.16667 77.5,8.5C 78.1667,5.83333 79.8333,4.16667 82.5,3.5 Z"/></g>
<g><path style="opacity:0.996" fill="#f3a7d5" d="M 76.5,9.5 C 74.8276,15.7876 75.4943,21.7876 78.5,27.5C 78.5,27.8333 78.5,28.1667 78.5,28.5C 76.5905,27.0254 75.4238,25.0254 75,22.5C 74.0613,17.8645 74.5613,13.5311 76.5,9.5 Z"/></g>
<g><path style="opacity:1" fill="#f96cc2" d="M 98.5,2.5 C 98.7911,3.64911 99.6244,4.31577 101,4.5C 105.936,2.70985 111.102,2.04318 116.5,2.5C 116.833,2.5 117.167,2.5 117.5,2.5C 118.539,4.53112 120.205,5.86446 122.5,6.5C 123.674,7.51369 124.34,8.84702 124.5,10.5C 124.67,12.8484 125.003,15.1817 125.5,17.5C 124.412,21.3266 123.078,24.9932 121.5,28.5C 120.167,28.5 118.833,28.5 117.5,28.5C 117.275,26.2841 118.108,24.6174 120,23.5C 120.805,20.3035 120.638,17.3035 119.5,14.5C 118.039,7.42683 113.706,4.92683 106.5,7C 104.881,7.23555 103.881,8.06888 103.5,9.5C 100.763,9.59868 98.0961,9.26535 95.5,8.5C 95.1667,8.5 94.8333,8.5 94.5,8.5C 93.6879,7.00691 92.3545,6.34024 90.5,6.5C 88.4878,6.83956 86.4878,7.1729 84.5,7.5C 84.5,8.5 84.5,9.5 84.5,10.5C 84.1667,11.5 83.5,12.1667 82.5,12.5C 78.6072,15.9145 78.6072,19.2478 82.5,22.5C 82.5,23.1667 82.5,23.8333 82.5,24.5C 82.5,25.5 82.5,26.5 82.5,27.5C 81.1667,27.5 79.8333,27.5 78.5,27.5C 75.4943,21.7876 74.8276,15.7876 76.5,9.5C 76.5,8.83333 76.8333,8.5 77.5,8.5C 79.5,7.16667 81.1667,5.5 82.5,3.5C 87.5563,-0.0267212 92.8896,-0.360055 98.5,2.5 Z"/></g>
<g><path style="opacity:0.824" fill="#fccdec" d="M 82.5,22.5 C 84.1667,23.5 85.5,24.8333 86.5,26.5C 84.9382,26.2671 83.6049,25.6005 82.5,24.5C 82.5,23.8333 82.5,23.1667 82.5,22.5 Z"/></g>
<g><path style="opacity:1" fill="#f093cc" d="M 82.5,12.5 C 81.1667,15.8333 81.1667,19.1667 82.5,22.5C 78.6072,19.2478 78.6072,15.9145 82.5,12.5 Z"/></g>
<g><path style="opacity:1" fill="#f599ce" d="M 95.5,8.5 C 98.0961,9.26535 100.763,9.59868 103.5,9.5C 100.623,12.1272 97.9561,11.7939 95.5,8.5 Z"/></g>
<g><path style="opacity:1" fill="#efa3d0" d="M 94.5,8.5 C 90.904,7.56308 87.5706,8.22975 84.5,10.5C 84.5,9.5 84.5,8.5 84.5,7.5C 86.4878,7.1729 88.4878,6.83956 90.5,6.5C 92.3545,6.34024 93.6879,7.00691 94.5,8.5 Z"/></g>
<g><path style="opacity:0.973" fill="#ef9dcf" d="M 119.5,14.5 C 115.622,8.66175 110.288,6.99508 103.5,9.5C 103.881,8.06888 104.881,7.23555 106.5,7C 113.706,4.92683 118.039,7.42683 119.5,14.5 Z"/></g>
<g><path style="opacity:1" fill="#f37fc4" d="M 82.5,24.5 C 83.6049,25.6005 84.9382,26.2671 86.5,26.5C 86.5,27.1667 86.5,27.8333 86.5,28.5C 85.4246,27.4376 84.4246,27.4376 83.5,28.5C 85.4724,32.7833 87.8058,36.7833 90.5,40.5C 86.1667,36.8333 82.1667,32.8333 78.5,28.5C 78.5,28.1667 78.5,27.8333 78.5,27.5C 79.8333,27.5 81.1667,27.5 82.5,27.5C 82.5,26.5 82.5,25.5 82.5,24.5 Z"/></g>
<g><path style="opacity:1" fill="#f597ce" d="M 124.5,10.5 C 128.143,20.9379 125.143,29.2712 115.5,35.5C 115.5,33.8333 115.5,32.1667 115.5,30.5C 115.631,29.7611 115.464,29.0944 115,28.5C 111.71,31.5484 108.21,34.2151 104.5,36.5C 108.797,31.7021 113.297,27.0355 118,22.5C 119.252,19.9865 119.752,17.3198 119.5,14.5C 120.638,17.3035 120.805,20.3035 120,23.5C 118.108,24.6174 117.275,26.2841 117.5,28.5C 118.833,28.5 120.167,28.5 121.5,28.5C 123.078,24.9932 124.412,21.3266 125.5,17.5C 125.003,15.1817 124.67,12.8484 124.5,10.5 Z"/></g>
<g><path style="opacity:1" fill="#f7afd6" d="M 86.5,26.5 C 88.1667,27.5 89.5,28.8333 90.5,30.5C 88.8007,30.4729 87.4674,29.8062 86.5,28.5C 86.5,27.8333 86.5,27.1667 86.5,26.5 Z"/></g>
<g><path style="opacity:1" fill="#f989ce" d="M 115.5,30.5 C 115.5,32.1667 115.5,33.8333 115.5,35.5C 112.167,39.5 108.5,43.1667 104.5,46.5C 104.337,44.1432 104.503,41.8098 105,39.5C 105.71,40.9733 106.876,41.6399 108.5,41.5C 107.138,36.2128 109.138,33.5461 114.5,33.5C 114.263,32.209 114.596,31.209 115.5,30.5 Z"/></g>
<g><path style="opacity:1" fill="#f86cc3" d="M 86.5,28.5 C 87.4674,29.8062 88.8007,30.4729 90.5,30.5C 90.427,32.0269 91.0937,33.0269 92.5,33.5C 94.8333,35.5 97.1667,37.5 99.5,39.5C 102.339,40.9063 104.006,39.9063 104.5,36.5C 108.21,34.2151 111.71,31.5484 115,28.5C 115.464,29.0944 115.631,29.7611 115.5,30.5C 114.596,31.209 114.263,32.209 114.5,33.5C 109.138,33.5461 107.138,36.2128 108.5,41.5C 106.876,41.6399 105.71,40.9733 105,39.5C 104.503,41.8098 104.337,44.1432 104.5,46.5C 100.968,46.69 97.6348,46.0233 94.5,44.5C 92.8333,43.5 91.5,42.1667 90.5,40.5C 87.8058,36.7833 85.4724,32.7833 83.5,28.5C 84.4246,27.4376 85.4246,27.4376 86.5,28.5 Z"/></g>
<g><path style="opacity:1" fill="#f4a5d3" d="M 104.5,36.5 C 104.006,39.9063 102.339,40.9063 99.5,39.5C 101.411,38.925 103.078,37.925 104.5,36.5 Z"/></g>
<g><path style="opacity:0.651" fill="#ffcee6" d="M 90.5,30.5 C 91.9063,30.9731 92.573,31.9731 92.5,33.5C 91.0937,33.0269 90.427,32.0269 90.5,30.5 Z"/></g>
<g><path style="opacity:1" fill="#f49cd0" d="M 94.5,44.5 C 97.6348,46.0233 100.968,46.69 104.5,46.5C 100.63,50.2902 97.297,49.6235 94.5,44.5 Z"/></g>
<g><path style="opacity:1" fill="#f387c8" d="M 73.5,68.5 C 73.5,69.1667 73.5,69.8333 73.5,70.5C 69.8383,68.866 66.505,69.366 63.5,72C 69.9667,73.4396 76.3,75.4396 82.5,78C 84.4386,78.9078 85.4386,80.4078 85.5,82.5C 79.823,80.2451 74.323,77.5785 69,74.5C 67.0065,75.914 64.8398,76.914 62.5,77.5C 64.2683,73.5891 62.935,71.9224 58.5,72.5C 61.8559,70.4007 65.3559,68.4007 69,66.5C 70.4705,67.2666 71.9705,67.9332 73.5,68.5 Z"/></g>
<g><path style="opacity:0.949" fill="#f1a9d6" d="M 73.5,68.5 C 76.7188,70.0265 79.8855,71.6932 83,73.5C 83.3826,72.944 83.8826,72.6107 84.5,72.5C 84.5,73.1667 84.5,73.8333 84.5,74.5C 80.5304,74.0159 76.8637,72.6825 73.5,70.5C 73.5,69.8333 73.5,69.1667 73.5,68.5 Z"/></g>
<g><path style="opacity:1" fill="#fa68c2" d="M 105.5,92.5 C 102.515,91.6743 99.8485,90.341 97.5,88.5C 94.9109,84.1154 90.9109,82.1154 85.5,82.5C 85.4386,80.4078 84.4386,78.9078 82.5,78C 76.3,75.4396 69.9667,73.4396 63.5,72C 66.505,69.366 69.8383,68.866 73.5,70.5C 76.8637,72.6825 80.5304,74.0159 84.5,74.5C 85.4891,68.6781 86.1558,62.6781 86.5,56.5C 95.7506,56.1822 104.917,56.5155 114,57.5C 114.758,67.5208 114.592,77.5208 113.5,87.5C 113.667,88.5 113.833,89.5 114,90.5C 115.973,91.6399 117.807,92.9733 119.5,94.5C 118.5,94.8333 117.5,95.1667 116.5,95.5C 113.039,93.7181 109.372,92.7181 105.5,92.5 Z M 91.5,74.5 C 97.5,74.5 103.5,74.5 109.5,74.5C 109.5,78.1667 109.5,81.8333 109.5,85.5C 106.62,85.0598 103.954,84.0598 101.5,82.5C 101.167,82.5 100.833,82.5 100.5,82.5C 99.7095,81.5987 98.7095,80.9321 97.5,80.5C 97.1667,80.5 96.8333,80.5 96.5,80.5C 95.1516,79.3994 93.6516,78.3994 92,77.5C 91.5172,76.552 91.3505,75.552 91.5,74.5 Z M 92.5,61.5 C 97.8437,61.334 103.177,61.5006 108.5,62C 109.38,63.3561 109.714,64.8561 109.5,66.5C 103.5,66.5 97.5,66.5 91.5,66.5C 91.366,64.7085 91.6993,63.0418 92.5,61.5 Z"/></g>
<g><path style="opacity:1" fill="#ee8cca" d="M 110.5,85.5 C 110.815,81.6286 110.482,77.9619 109.5,74.5C 103.5,74.5 97.5,74.5 91.5,74.5C 91.1667,74.5 90.8333,74.5 90.5,74.5C 93.428,73.1803 96.7614,72.5136 100.5,72.5C 103.833,72.6667 107.167,72.8333 110.5,73C 111.822,77.2669 111.822,81.4336 110.5,85.5 Z"/></g>
<g><path style="opacity:1" fill="#ee87c4" d="M 50.5,76.5 C 48.7515,79.375 46.0848,80.7083 42.5,80.5C 44.8485,78.659 47.5152,77.3257 50.5,76.5 Z"/></g>
<g><path style="opacity:1" fill="#f585c9" d="M 62.5,77.5 C 59.4846,79.6744 56.1513,81.3411 52.5,82.5C 52.5,81.1667 52.5,79.8333 52.5,78.5C 55.8599,78.3841 59.1933,78.0508 62.5,77.5 Z"/></g>
<g><path style="opacity:0.937" fill="#f5aad5" d="M 90.5,74.5 C 90.8333,74.5 91.1667,74.5 91.5,74.5C 91.3505,75.552 91.5172,76.552 92,77.5C 93.6516,78.3994 95.1516,79.3994 96.5,80.5C 91.8321,81.1606 89.8321,79.1606 90.5,74.5 Z"/></g>
<g><path style="opacity:0.961" fill="#f3bcdb" d="M 97.5,80.5 C 98.7095,80.9321 99.7095,81.5987 100.5,82.5C 98.8212,82.7148 97.8212,82.0481 97.5,80.5 Z"/></g>
<g><path style="opacity:1" fill="#f0acd8" d="M 74.5,85.5 C 71.5448,84.8413 68.5448,84.5079 65.5,84.5C 68.7858,81.7327 71.7858,82.0661 74.5,85.5 Z"/></g>
<g><path style="opacity:1" fill="#f38ac7" d="M 85.5,82.5 C 90.9109,82.1154 94.9109,84.1154 97.5,88.5C 93.1822,87.0078 89.1822,85.0078 85.5,82.5 Z"/></g>
<g><path style="opacity:1" fill="#f184c6" d="M 42.5,80.5 C 42.5,81.5 42.5,82.5 42.5,83.5C 38.5,84.5 34.5,85.5 30.5,86.5C 34.1822,83.9922 38.1822,81.9922 42.5,80.5 Z"/></g>
<g><path style="opacity:0.16" fill="#ffddfe" d="M 312.5,85.5 C 323.654,84.5052 334.988,84.1719 346.5,84.5C 346.819,89.3633 346.486,94.03 345.5,98.5C 345.5,94.1667 345.5,89.8333 345.5,85.5C 334.5,85.5 323.5,85.5 312.5,85.5 Z"/></g>
<g><path style="opacity:0.137" fill="#fee9fc" d="M 375.5,85.5 C 373.379,85.3253 371.379,85.6586 369.5,86.5C 369.97,85.3065 370.97,84.6399 372.5,84.5C 373.726,84.5195 374.726,84.8529 375.5,85.5 Z"/></g>
<g><path style="opacity:0.255" fill="#fcd1f2" d="M 461.5,85.5 C 462.449,84.8476 463.615,84.5143 465,84.5C 467.221,84.3932 469.054,85.0598 470.5,86.5C 467.545,85.8413 464.545,85.5079 461.5,85.5 Z"/></g>
<g><path style="opacity:0.996" fill="#f093cb" d="M 245.5,89.5 C 236.994,87.7074 228.327,86.7074 219.5,86.5C 216.375,86.4347 213.375,86.9347 210.5,88C 211.28,90.698 212.613,93.0314 214.5,95C 221.213,95.5924 227.546,96.759 233.5,98.5C 227.824,98.6661 222.157,98.4994 216.5,98C 213.359,97.2854 211.359,95.4521 210.5,92.5C 210.068,91.2905 209.401,90.2905 208.5,89.5C 208.03,88.3065 207.03,87.6399 205.5,87.5C 203.069,88.3496 200.736,89.3496 198.5,90.5C 199.626,88.5475 201.292,87.0475 203.5,86C 214.441,84.4274 225.441,84.0941 236.5,85C 240.11,85.4717 243.11,86.9717 245.5,89.5 Z"/></g>
<g><path style="opacity:1" fill="#e887c4" d="M 308.5,86.5 C 309.568,85.5655 310.901,85.2322 312.5,85.5C 323.5,85.5 334.5,85.5 345.5,85.5C 345.5,89.8333 345.5,94.1667 345.5,98.5C 337.316,98.8257 329.316,98.4924 321.5,97.5C 329.167,97.5 336.833,97.5 344.5,97.5C 344.5,93.8333 344.5,90.1667 344.5,86.5C 332.5,86.5 320.5,86.5 308.5,86.5 Z"/></g>
<g><path style="opacity:1" fill="#f4acd9" d="M 416.5,85.5 C 418.288,84.3775 420.288,84.2109 422.5,85C 424.32,85.2004 425.653,86.0337 426.5,87.5C 423.198,86.7063 419.865,86.0396 416.5,85.5 Z"/></g>
<g><path style="opacity:1" fill="#f193cc" d="M 109.5,74.5 C 110.482,77.9619 110.815,81.6286 110.5,85.5C 109.848,86.7251 108.681,87.3917 107,87.5C 103.694,87.3576 101.86,85.6909 101.5,82.5C 103.954,84.0598 106.62,85.0598 109.5,85.5C 109.5,81.8333 109.5,78.1667 109.5,74.5 Z"/></g>
<g><path style="opacity:1" fill="#f1a4d1" d="M 175.5,93.5 C 173.5,92.1667 171.5,90.8333 169.5,89.5C 165.828,87.1096 161.828,86.2763 157.5,87C 156.947,88.8778 155.947,90.3778 154.5,91.5C 154.567,87.8764 156.233,85.5431 159.5,84.5C 164.205,84.9262 168.538,86.4262 172.5,89C 174.141,90.129 175.141,91.629 175.5,93.5 Z"/></g>
<g><path style="opacity:1" fill="#f26dbe" d="M 308.5,86.5 C 320.5,86.5 332.5,86.5 344.5,86.5C 344.5,90.1667 344.5,93.8333 344.5,97.5C 336.833,97.5 329.167,97.5 321.5,97.5C 321.167,96.8333 320.833,96.1667 320.5,95.5C 328.167,95.5 335.833,95.5 343.5,95.5C 343.703,93.6096 343.037,92.1096 341.5,91C 342.357,90.3109 343.023,89.4776 343.5,88.5C 334.518,87.3347 325.518,87.168 316.5,88C 317.423,90.0408 317.756,92.2075 317.5,94.5C 317.167,94.5 316.833,94.5 316.5,94.5C 316.5,93.8333 316.167,93.5 315.5,93.5C 315.672,92.5084 315.338,91.8417 314.5,91.5C 314.5,90.1667 314.5,88.8333 314.5,87.5C 309.971,87.4961 306.471,89.4961 304,93.5C 302.282,100.846 302.115,108.179 303.5,115.5C 302.833,115.5 302.167,115.5 301.5,115.5C 301.309,107.799 301.642,100.132 302.5,92.5C 304.833,90.8333 306.833,88.8333 308.5,86.5 Z"/></g>
<g><path style="opacity:1" fill="#fc66c2" d="M 245.5,89.5 C 245.366,91.2915 245.699,92.9582 246.5,94.5C 245.167,94.5 243.833,94.5 242.5,94.5C 242.5,95.8333 242.5,97.1667 242.5,98.5C 241.5,98.5 240.5,98.5 239.5,98.5C 238.833,98.5 238.167,98.5 237.5,98.5C 236.167,98.5 234.833,98.5 233.5,98.5C 227.546,96.759 221.213,95.5924 214.5,95C 212.613,93.0314 211.28,90.698 210.5,88C 213.375,86.9347 216.375,86.4347 219.5,86.5C 228.327,86.7074 236.994,87.7074 245.5,89.5 Z"/></g>
<g><path style="opacity:1" fill="#f18dcb" d="M 52.5,82.5 C 44.8177,87.0078 36.8177,91.0078 28.5,94.5C 28.9528,93.5416 29.6195,92.7083 30.5,92C 33.2545,90.8295 35.9212,89.4961 38.5,88C 39.8333,87.3333 39.8333,86.6667 38.5,86C 41.1415,85.6772 43.4748,84.6772 45.5,83C 47.8098,82.5034 50.1432,82.3367 52.5,82.5 Z"/></g>
<g><path style="opacity:0.957" fill="#f2a8d9" d="M 426.5,87.5 C 428.587,88.5846 429.92,90.2512 430.5,92.5C 428.413,91.4154 427.08,89.7488 426.5,87.5 Z"/></g>
<g><path style="opacity:1" fill="#fa68c2" d="M 58.5,72.5 C 62.935,71.9224 64.2683,73.5891 62.5,77.5C 59.1933,78.0508 55.8599,78.3841 52.5,78.5C 52.5,79.8333 52.5,81.1667 52.5,82.5C 50.1432,82.3367 47.8098,82.5034 45.5,83C 43.4748,84.6772 41.1415,85.6772 38.5,86C 39.8333,86.6667 39.8333,87.3333 38.5,88C 35.9212,89.4961 33.2545,90.8295 30.5,92C 29.6195,92.7083 28.9528,93.5416 28.5,94.5C 24.6707,95.069 21.3373,94.4023 18.5,92.5C 22.5,91.5 26.5,90.5 30.5,89.5C 30.5,88.5 30.5,87.5 30.5,86.5C 34.5,85.5 38.5,84.5 42.5,83.5C 42.5,82.5 42.5,81.5 42.5,80.5C 46.0848,80.7083 48.7515,79.375 50.5,76.5C 52.8485,74.659 55.5152,73.3257 58.5,72.5 Z"/></g>
<g><path style="opacity:1" fill="#f183c5" d="M 30.5,86.5 C 30.5,87.5 30.5,88.5 30.5,89.5C 26.5,90.5 22.5,91.5 18.5,92.5C 22.1822,89.9922 26.1822,87.9922 30.5,86.5 Z"/></g>
<g><path style="opacity:1" fill="#f96bc2" d="M 65.5,84.5 C 68.5448,84.5079 71.5448,84.8413 74.5,85.5C 75.1667,85.5 75.8333,85.5 76.5,85.5C 76.5614,87.5922 77.5614,89.0922 79.5,90C 86.7255,92.3341 93.3922,95.5008 99.5,99.5C 99.0377,100.88 98.0377,101.547 96.5,101.5C 93.4388,99.5683 90.1054,98.5683 86.5,98.5C 80.8489,96.3412 75.5156,93.6745 70.5,90.5C 67.995,89.5033 65.3283,89.5033 62.5,90.5C 62.6833,88.0122 63.6833,86.0122 65.5,84.5 Z"/></g>
<g><path style="opacity:0.914" fill="#f4abda" d="M 262.5,86.5 C 261.5,87.8333 260.5,89.1667 259.5,90.5C 258.5,91.1667 257.5,91.8333 256.5,92.5C 257.5,89.5 259.5,87.5 262.5,86.5 Z"/></g>
<g><path style="opacity:0.859" fill="#f2abd8" d="M 308.5,86.5 C 306.833,88.8333 304.833,90.8333 302.5,92.5C 303.5,89.5 305.5,87.5 308.5,86.5 Z"/></g>
<g><path style="opacity:1" fill="#f282c2" d="M 375.5,85.5 C 382.161,85.4922 386.828,88.4922 389.5,94.5C 389.5,95.5 389.5,96.5 389.5,97.5C 387.184,94.9054 384.851,92.2387 382.5,89.5C 378.849,87.4138 375.183,87.0804 371.5,88.5C 369.833,90.5 368.167,92.5 366.5,94.5C 367.108,91.6733 368.108,89.0067 369.5,86.5C 371.379,85.6586 373.379,85.3253 375.5,85.5 Z"/></g>
<g><path style="opacity:1" fill="#fd65c2" d="M 320.5,95.5 C 319.391,95.4431 318.391,95.1098 317.5,94.5C 317.756,92.2075 317.423,90.0408 316.5,88C 325.518,87.168 334.518,87.3347 343.5,88.5C 343.023,89.4776 342.357,90.3109 341.5,91C 343.037,92.1096 343.703,93.6096 343.5,95.5C 335.833,95.5 328.167,95.5 320.5,95.5 Z"/></g>
<g><path style="opacity:1" fill="#f29dce" d="M 76.5,85.5 C 89.0243,91.5947 101.358,97.9281 113.5,104.5C 109.615,103.095 105.615,102.095 101.5,101.5C 101.5,100.167 100.833,99.5 99.5,99.5C 93.3922,95.5008 86.7255,92.3341 79.5,90C 77.5614,89.0922 76.5614,87.5922 76.5,85.5 Z"/></g>
<g><path style="opacity:1" fill="#fb67c1" d="M 262.5,86.5 C 273.833,86.5 285.167,86.5 296.5,86.5C 296.5,89.8333 296.5,93.1667 296.5,96.5C 289.048,96.8483 281.714,96.1816 274.5,94.5C 273.486,93.3263 272.153,92.6596 270.5,92.5C 270.719,91.325 270.386,90.325 269.5,89.5C 268.503,96.8032 268.169,104.137 268.5,111.5C 267.683,109.031 267.183,106.365 267,103.5C 266.586,103.957 266.086,104.291 265.5,104.5C 265.167,103 264.833,101.5 264.5,100C 263.919,97.3873 263.919,94.8873 264.5,92.5C 263.731,89.3759 262.064,88.7092 259.5,90.5C 260.5,89.1667 261.5,87.8333 262.5,86.5 Z"/></g>
<g><path style="opacity:1" fill="#f57bc5" d="M 18.5,92.5 C 21.3373,94.4023 24.6707,95.069 28.5,94.5C 25.4846,96.6744 22.1513,98.3411 18.5,99.5C 17.1667,99.5 15.8333,99.5 14.5,99.5C 14.1344,98.3054 13.301,97.6387 12,97.5C 10.2341,98.2335 8.40078,98.5668 6.5,98.5C 10.1822,95.9922 14.1822,93.9922 18.5,92.5 Z"/></g>
<g><path style="opacity:1" fill="#f08ec8" d="M 49.5,92.5 C 47.7515,95.375 45.0848,96.7083 41.5,96.5C 43.8485,94.659 46.5152,93.3257 49.5,92.5 Z"/></g>
<g><path style="opacity:0.8" fill="#f2b7d7" d="M 270.5,92.5 C 272.153,92.6596 273.486,93.3263 274.5,94.5C 274.833,95.1667 275.167,95.8333 275.5,96.5C 273.251,95.9202 271.585,94.5869 270.5,92.5 Z"/></g>
<g><path style="opacity:1" fill="#fc66c2" d="M 415.5,85.5 C 415.833,85.5 416.167,85.5 416.5,85.5C 419.865,86.0396 423.198,86.7063 426.5,87.5C 427.08,89.7488 428.413,91.4154 430.5,92.5C 430.427,94.0269 431.094,95.0269 432.5,95.5C 433.378,102.009 435.378,108.009 438.5,113.5C 438.5,113.833 438.5,114.167 438.5,114.5C 438.5,117.5 438.5,120.5 438.5,123.5C 438.665,126.85 438.498,130.183 438,133.5C 437.586,133.957 437.086,134.291 436.5,134.5C 434.793,130.864 433.626,130.864 433,134.5C 431.484,131.949 430.651,132.282 430.5,135.5C 430.167,135.5 429.833,135.5 429.5,135.5C 429.956,131.889 429.289,128.556 427.5,125.5C 427.977,124.522 428.643,123.689 429.5,123C 428.527,117.593 428.193,112.093 428.5,106.5C 426.833,106.5 425.167,106.5 423.5,106.5C 422.965,102.563 421.632,98.8961 419.5,95.5C 417.926,94.3691 416.259,94.2025 414.5,95C 417.018,96.8101 417.018,98.6434 414.5,100.5C 414.565,100.938 414.399,101.272 414,101.5C 413.092,99.5614 411.592,98.5614 409.5,98.5C 410.386,93.6139 412.386,89.2806 415.5,85.5 Z"/></g>
<g><path style="opacity:0.38" fill="#fbc6ea" d="M 430.5,92.5 C 431.906,92.9731 432.573,93.9731 432.5,95.5C 431.094,95.0269 430.427,94.0269 430.5,92.5 Z"/></g>
<g><path style="opacity:0.275" fill="#fec7f2" d="M 208.5,89.5 C 209.401,90.2905 210.068,91.2905 210.5,92.5C 209.508,99.6476 209.175,106.981 209.5,114.5C 209.167,114.5 208.833,114.5 208.5,114.5C 208.5,106.167 208.5,97.8333 208.5,89.5 Z"/></g>
<g><path style="opacity:0.988" fill="#f1a7d4" d="M 316.5,94.5 C 316.833,94.5 317.167,94.5 317.5,94.5C 318.391,95.1098 319.391,95.4431 320.5,95.5C 320.833,96.1667 321.167,96.8333 321.5,97.5C 319.326,97.2503 317.659,96.2503 316.5,94.5 Z"/></g>
<g><path style="opacity:1" fill="#fc66c2" d="M 462.5,98.5 C 462.5,99.8333 462.5,101.167 462.5,102.5C 462.5,103.167 462.5,103.833 462.5,104.5C 461.503,104.47 460.836,104.97 460.5,106C 458.085,111.231 457.085,116.731 457.5,122.5C 456.631,124.717 456.298,127.05 456.5,129.5C 456.5,129.833 456.5,130.167 456.5,130.5C 455.883,130.611 455.383,130.944 455,131.5C 454.304,134.478 453.804,137.478 453.5,140.5C 453.5,140.833 453.5,141.167 453.5,141.5C 449.643,141.69 447.976,143.69 448.5,147.5C 443.33,149.093 438.33,148.76 433.5,146.5C 431.662,143.13 430.662,139.463 430.5,135.5C 430.651,132.282 431.484,131.949 433,134.5C 433.626,130.864 434.793,130.864 436.5,134.5C 437.086,134.291 437.586,133.957 438,133.5C 438.498,130.183 438.665,126.85 438.5,123.5C 439.558,125.808 440.724,128.142 442,130.5C 442.495,128.527 442.662,126.527 442.5,124.5C 442.5,123.5 442.5,122.5 442.5,121.5C 443.117,121.389 443.617,121.056 444,120.5C 445.982,113.575 447.482,106.575 448.5,99.5C 449.496,99.5858 450.329,99.2524 451,98.5C 452.421,96.5952 453.588,94.5952 454.5,92.5C 455.473,91.2086 456.473,91.2086 457.5,92.5C 458.606,95.1346 460.273,97.1346 462.5,98.5 Z"/></g>
<g><path style="opacity:1" fill="#f684c8" d="M 120.5,92.5 C 120.414,93.4959 120.748,94.3292 121.5,95C 125.021,96.6738 128.687,97.8404 132.5,98.5C 133.678,101.477 133.678,104.477 132.5,107.5C 132.5,107.833 132.5,108.167 132.5,108.5C 132.167,108.5 131.833,108.5 131.5,108.5C 131.5,105.5 131.5,102.5 131.5,99.5C 130.167,99.5 128.833,99.5 127.5,99.5C 127.663,101.857 127.497,104.19 127,106.5C 126.623,107.942 125.79,108.942 124.5,109.5C 124.5,109.167 124.5,108.833 124.5,108.5C 125.999,106.742 126.332,104.909 125.5,103C 118.614,99.7257 111.947,96.2257 105.5,92.5C 109.372,92.7181 113.039,93.7181 116.5,95.5C 117.5,95.1667 118.5,94.8333 119.5,94.5C 117.807,92.9733 115.973,91.6399 114,90.5C 113.833,89.5 113.667,88.5 113.5,87.5C 114.592,77.5208 114.758,67.5208 114,57.5C 104.917,56.5155 95.7506,56.1822 86.5,56.5C 86.1558,62.6781 85.4891,68.6781 84.5,74.5C 84.5,73.8333 84.5,73.1667 84.5,72.5C 84.334,67.1563 84.5006,61.8229 85,56.5C 85.5,56 86,55.5 86.5,55C 95.8333,54.3333 105.167,54.3333 114.5,55C 115,55.5 115.5,56 116,56.5C 116.168,67.848 116.668,79.1813 117.5,90.5C 118.739,90.9424 119.739,91.6091 120.5,92.5 Z M 92.5,61.5 C 91.6993,63.0418 91.366,64.7085 91.5,66.5C 97.5,66.5 103.5,66.5 109.5,66.5C 109.714,64.8561 109.38,63.3561 108.5,62C 103.177,61.5006 97.8437,61.334 92.5,61.5 Z"/></g>
<g><path style="opacity:0.77" fill="#f6bcde" d="M 91.5,60.5 C 97.5092,60.3338 103.509,60.5005 109.5,61C 110.423,63.0408 110.756,65.2075 110.5,67.5C 103.833,67.5 97.1667,67.5 90.5,67.5C 90.298,65.0504 90.6314,62.717 91.5,60.5 Z M 92.5,61.5 C 91.6993,63.0418 91.366,64.7085 91.5,66.5C 97.5,66.5 103.5,66.5 109.5,66.5C 109.714,64.8561 109.38,63.3561 108.5,62C 103.177,61.5006 97.8437,61.334 92.5,61.5 Z"/></g>
<g><path style="opacity:0.953" fill="#f3a3d2" d="M 120.5,92.5 C 124.818,93.9922 128.818,95.9922 132.5,98.5C 128.687,97.8404 125.021,96.6738 121.5,95C 120.748,94.3292 120.414,93.4959 120.5,92.5 Z"/></g>
<g><path style="opacity:1" fill="#fb66c2" d="M 208.5,89.5 C 208.5,97.8333 208.5,106.167 208.5,114.5C 208.5,122.167 208.5,129.833 208.5,137.5C 207.36,140.025 206.693,142.692 206.5,145.5C 203.159,146.002 200.159,147.336 197.5,149.5C 196.334,132.51 196.167,115.51 197,98.5C 197.395,95.7934 197.895,93.1267 198.5,90.5C 200.736,89.3496 203.069,88.3496 205.5,87.5C 207.03,87.6399 208.03,88.3065 208.5,89.5 Z"/></g>
<g><path style="opacity:1" fill="#e874bb" d="M 262.5,86.5 C 263.568,85.5655 264.901,85.2322 266.5,85.5C 276.833,85.5 287.167,85.5 297.5,85.5C 297.5,89.5 297.5,93.5 297.5,97.5C 290.132,97.6831 282.799,97.3498 275.5,96.5C 275.167,95.8333 274.833,95.1667 274.5,94.5C 281.714,96.1816 289.048,96.8483 296.5,96.5C 296.5,93.1667 296.5,89.8333 296.5,86.5C 285.167,86.5 273.833,86.5 262.5,86.5 Z"/></g>
<g><path style="opacity:1" fill="#fc66c2" d="M 314.5,91.5 C 314.5,98.1667 314.5,104.833 314.5,111.5C 321.5,112.167 328.5,112.833 335.5,113.5C 335.979,116.064 336.645,118.564 337.5,121C 337.043,121.414 336.709,121.914 336.5,122.5C 327.859,123.498 319.192,123.831 310.5,123.5C 307.255,121.706 304.921,119.039 303.5,115.5C 302.115,108.179 302.282,100.846 304,93.5C 306.471,89.4961 309.971,87.4961 314.5,87.5C 314.5,88.8333 314.5,90.1667 314.5,91.5 Z"/></g>
<g><path style="opacity:1" fill="#fc66c1" d="M 41.5,96.5 C 45.0848,96.7083 47.7515,95.375 49.5,92.5C 52.4824,92.0371 55.4824,91.7038 58.5,91.5C 58.5,92.5 58.5,93.5 58.5,94.5C 55.4318,94.5467 52.4318,95.0467 49.5,96C 49.8333,96.3333 50.1667,96.6667 50.5,97C 47.5089,98.4956 44.5089,99.9956 41.5,101.5C 40.8333,101.333 40.1667,101.167 39.5,101C 41.0368,99.8904 41.7035,98.3904 41.5,96.5 Z"/></g>
<g><path style="opacity:1" fill="#fb67c1" d="M 169.5,89.5 C 171.5,90.8333 173.5,92.1667 175.5,93.5C 176.931,94.7804 177.598,96.4471 177.5,98.5C 177.41,101.152 178.076,103.485 179.5,105.5C 179.41,108.152 180.076,110.485 181.5,112.5C 181.41,115.152 182.076,117.485 183.5,119.5C 183.674,121.861 184.007,124.194 184.5,126.5C 183.073,124.852 182.24,122.852 182,120.5C 181.59,122.668 180.756,124.001 179.5,124.5C 179.7,127.406 180.7,129.906 182.5,132C 181.338,132.827 180.171,133.66 179,134.5C 178.228,134.355 177.561,134.022 177,133.5C 175.987,135.846 174.321,137.513 172,138.5C 168.559,137.618 165.059,137.284 161.5,137.5C 161.034,135.799 161.034,134.299 161.5,133C 160.244,132.583 159.577,131.75 159.5,130.5C 162.625,129.521 165.958,129.187 169.5,129.5C 169.768,127.901 169.434,126.568 168.5,125.5C 168.5,125.167 168.5,124.833 168.5,124.5C 168.493,121.962 168.159,119.462 167.5,117C 167.316,115.624 166.649,114.791 165.5,114.5C 165.5,114.167 165.5,113.833 165.5,113.5C 165.747,110.061 165.414,106.728 164.5,103.5C 165.649,103.209 166.316,102.376 166.5,101C 165.799,98.6196 164.633,96.4529 163,94.5C 162.107,95.7112 161.274,95.7112 160.5,94.5C 161.171,93.0542 162.338,92.3875 164,92.5C 166.379,94.758 169.046,96.758 172,98.5C 172.5,97.5 173,96.5 173.5,95.5C 171.723,94.099 170.056,92.599 168.5,91C 169.056,90.6174 169.389,90.1174 169.5,89.5 Z"/></g>
<g><path style="opacity:0.547" fill="#fec2ee" d="M 266.5,85.5 C 276.987,84.5056 287.654,84.1722 298.5,84.5C 298.5,89.1667 298.5,93.8333 298.5,98.5C 291.825,98.6663 285.158,98.4996 278.5,98C 277.263,97.7679 276.263,97.2679 275.5,96.5C 282.799,97.3498 290.132,97.6831 297.5,97.5C 297.5,93.5 297.5,89.5 297.5,85.5C 287.167,85.5 276.833,85.5 266.5,85.5 Z"/></g>
<g><path style="opacity:0.945" fill="#f5b4dc" d="M 389.5,94.5 C 391.277,97.5046 392.277,100.838 392.5,104.5C 391.323,102.321 390.323,99.9872 389.5,97.5C 389.5,96.5 389.5,95.5 389.5,94.5 Z"/></g>
<g><path style="opacity:1" fill="#f48fcb" d="M 454.5,90.5 C 454.5,91.1667 454.5,91.8333 454.5,92.5C 453.588,94.5952 452.421,96.5952 451,98.5C 450.329,99.2524 449.496,99.5858 448.5,99.5C 449.723,95.9505 451.723,92.9505 454.5,90.5 Z"/></g>
<g><path style="opacity:1" fill="#f37bc3" d="M 164.5,103.5 C 165.414,106.728 165.747,110.061 165.5,113.5C 164.076,111.485 163.41,109.152 163.5,106.5C 163.291,105.078 162.791,103.745 162,102.5C 161.501,106.821 161.334,111.154 161.5,115.5C 161.5,116.5 161.5,117.5 161.5,118.5C 161.167,118.5 160.833,118.5 160.5,118.5C 160.5,111.833 160.5,105.167 160.5,98.5C 161.5,98.5 162.5,98.5 163.5,98.5C 163.366,100.292 163.699,101.958 164.5,103.5 Z"/></g>
<g><path style="opacity:1" fill="#ee76bc" d="M 461.5,85.5 C 464.545,85.5079 467.545,85.8413 470.5,86.5C 473.292,87.3918 474.625,89.3918 474.5,92.5C 474.83,108.675 474.496,124.675 473.5,140.5C 473.5,124.167 473.5,107.833 473.5,91.5C 472.5,91.5 471.5,91.5 470.5,91.5C 470.5,90.1667 470.5,88.8333 470.5,87.5C 466.445,87.1758 462.445,87.5091 458.5,88.5C 457.68,90.1112 456.346,90.7778 454.5,90.5C 455.992,87.6769 458.326,86.0102 461.5,85.5 Z"/></g>
<g><path style="opacity:1" fill="#ee94cd" d="M 198.5,90.5 C 197.895,93.1267 197.395,95.7934 197,98.5C 196.167,115.51 196.334,132.51 197.5,149.5C 200.159,147.336 203.159,146.002 206.5,145.5C 203.487,149.335 199.487,151.001 194.5,150.5C 194.333,132.497 194.5,114.497 195,96.5C 195.424,93.9746 196.59,91.9746 198.5,90.5 Z"/></g>
<g><path style="opacity:0.95" fill="#f195cb" d="M 415.5,85.5 C 412.386,89.2806 410.386,93.6139 409.5,98.5C 409.5,115.5 409.5,132.5 409.5,149.5C 416.805,148.862 420.805,144.862 421.5,137.5C 421.833,137.5 422.167,137.5 422.5,137.5C 422.5,137.833 422.5,138.167 422.5,138.5C 422.151,145.524 418.484,149.857 411.5,151.5C 410.833,151.167 410.167,150.833 409.5,150.5C 408.093,132.519 407.593,114.519 408,96.5C 408.046,91.0523 410.546,87.3857 415.5,85.5 Z"/></g>
<g><path style="opacity:1" fill="#f38cca" d="M 14.5,99.5 C 15.8333,99.5 17.1667,99.5 18.5,99.5C 16.2314,100.976 13.8981,102.476 11.5,104C 12.2665,106.053 13.5998,107.553 15.5,108.5C 18.8496,107.157 22.1829,105.823 25.5,104.5C 23.7039,106.417 21.7039,108.25 19.5,110C 13.9826,112.684 10.9826,110.85 10.5,104.5C 11.9378,102.655 11.6044,101.489 9.5,101C 11.3817,100.802 13.0484,100.302 14.5,99.5 Z"/></g>
<g><path style="opacity:1" fill="#f380c5" d="M 86.5,98.5 C 90.1054,98.5683 93.4388,99.5683 96.5,101.5C 98.0377,101.547 99.0377,100.88 99.5,99.5C 100.833,99.5 101.5,100.167 101.5,101.5C 99.9719,101.517 99.4719,102.184 100,103.5C 101.648,104.717 103.481,105.55 105.5,106C 106.252,106.671 106.586,107.504 106.5,108.5C 99.5157,105.675 92.849,102.341 86.5,98.5 Z"/></g>
<g><path style="opacity:1" fill="#f398ce" d="M 154.5,91.5 C 152.884,98.142 151.218,104.809 149.5,111.5C 148.391,111.557 147.391,111.89 146.5,112.5C 148.796,105.269 151.462,98.2685 154.5,91.5 Z"/></g>
<g><path style="opacity:0.542" fill="#fdb1e1" d="M 302.5,92.5 C 301.642,100.132 301.309,107.799 301.5,115.5C 300.346,109.013 300.179,102.346 301,95.5C 301.232,94.2625 301.732,93.2625 302.5,92.5 Z"/></g>
<g><path style="opacity:1" fill="#fd65c3" d="M 389.5,97.5 C 390.323,99.9872 391.323,102.321 392.5,104.5C 392.963,107.482 393.296,110.482 393.5,113.5C 394.463,117.101 395.13,120.767 395.5,124.5C 394.5,124.5 393.5,124.5 392.5,124.5C 391.885,127.934 389.719,129.934 386,130.5C 385.5,130.167 385,129.833 384.5,129.5C 385.167,128.833 385.833,128.167 386.5,127.5C 384.461,121.317 382.461,115.151 380.5,109C 380.645,108.228 380.978,107.561 381.5,107C 380.875,104.2 380.208,101.366 379.5,98.5C 377.679,97.2723 376.679,95.6056 376.5,93.5C 372.038,92.1429 371.371,93.4763 374.5,97.5C 373.723,105.141 373.056,112.808 372.5,120.5C 372.167,120.5 371.833,120.5 371.5,120.5C 370.711,120.217 370.044,119.717 369.5,119C 371.154,111.978 370.82,104.812 368.5,97.5C 370.319,94.7853 371.319,91.7853 371.5,88.5C 375.183,87.0804 378.849,87.4138 382.5,89.5C 384.851,92.2387 387.184,94.9054 389.5,97.5 Z"/></g>
<g><path style="opacity:1" fill="#f57dc5" d="M 65.5,84.5 C 63.6833,86.0122 62.6833,88.0122 62.5,90.5C 65.3283,89.5033 67.995,89.5033 70.5,90.5C 56.7242,96.554 43.0575,102.887 29.5,109.5C 30.0114,107.805 30.6781,106.139 31.5,104.5C 33.0709,105.309 34.7376,105.643 36.5,105.5C 36.7778,103.654 36.1112,102.32 34.5,101.5C 31.7659,103.371 28.7659,104.371 25.5,104.5C 30.5156,101.326 35.8489,98.6588 41.5,96.5C 41.7035,98.3904 41.0368,99.8904 39.5,101C 40.1667,101.167 40.8333,101.333 41.5,101.5C 44.5089,99.9956 47.5089,98.4956 50.5,97C 50.1667,96.6667 49.8333,96.3333 49.5,96C 52.4318,95.0467 55.4318,94.5467 58.5,94.5C 58.5,93.5 58.5,92.5 58.5,91.5C 55.4824,91.7038 52.4824,92.0371 49.5,92.5C 54.5156,89.3255 59.8489,86.6588 65.5,84.5 Z"/></g>
<g><path style="opacity:1" fill="#f2a4d2" d="M 132.5,98.5 C 136.155,101.313 136.155,104.313 132.5,107.5C 133.678,104.477 133.678,101.477 132.5,98.5 Z"/></g>
<g><path style="opacity:0.922" fill="#f5afdc" d="M 177.5,98.5 C 178.924,100.515 179.59,102.848 179.5,105.5C 178.076,103.485 177.41,101.152 177.5,98.5 Z"/></g>
<g><path style="opacity:1" fill="#ec8bc6" d="M 6.5,98.5 C 5.53978,101.765 5.53978,105.098 6.5,108.5C 3.96945,106.034 3.13611,103.034 4,99.5C 4.67076,98.7476 5.5041,98.4142 6.5,98.5 Z"/></g>
<g><path style="opacity:1" fill="#ef91c9" d="M 366.5,95.5 C 366.665,99.5788 365.331,102.912 362.5,105.5C 363.267,101.851 364.6,98.5178 366.5,95.5 Z"/></g>
<g><path style="opacity:1" fill="#f293ca" d="M 432.5,95.5 C 435.473,101.085 437.473,107.085 438.5,113.5C 435.378,108.009 433.378,102.009 432.5,95.5 Z"/></g>
<g><path style="opacity:0.416" fill="#ffd3fb" d="M 461.5,110.5 C 461.167,110.5 460.833,110.5 460.5,110.5C 460.971,108.421 461.637,106.421 462.5,104.5C 462.5,103.833 462.5,103.167 462.5,102.5C 463.222,102.082 463.722,101.416 464,100.5C 463.902,103.972 463.068,107.305 461.5,110.5 Z"/></g>
<g><path style="opacity:0.976" fill="#ed8dc5" d="M 448.5,99.5 C 447.482,106.575 445.982,113.575 444,120.5C 443.617,121.056 443.117,121.389 442.5,121.5C 443.277,113.717 445.277,106.383 448.5,99.5 Z"/></g>
<g><path style="opacity:1" fill="#fd65c2" d="M 473.5,140.5 C 473.5,141.167 473.5,141.833 473.5,142.5C 471.744,143.552 471.077,145.219 471.5,147.5C 468.564,148.406 465.564,149.072 462.5,149.5C 462.333,137.829 462.5,126.162 463,114.5C 463.878,109.446 465.045,104.446 466.5,99.5C 466.444,98.263 465.944,97.263 465,96.5C 464.583,97.756 463.75,98.4226 462.5,98.5C 460.273,97.1346 458.606,95.1346 457.5,92.5C 456.473,91.2086 455.473,91.2086 454.5,92.5C 454.5,91.8333 454.5,91.1667 454.5,90.5C 456.346,90.7778 457.68,90.1112 458.5,88.5C 462.445,87.5091 466.445,87.1758 470.5,87.5C 470.5,88.8333 470.5,90.1667 470.5,91.5C 471.5,91.5 472.5,91.5 473.5,91.5C 473.5,107.833 473.5,124.167 473.5,140.5 Z"/></g>
<g><path style="opacity:1" fill="#fc66c3" d="M 169.5,89.5 C 169.389,90.1174 169.056,90.6174 168.5,91C 170.056,92.599 171.723,94.099 173.5,95.5C 173,96.5 172.5,97.5 172,98.5C 169.046,96.758 166.379,94.758 164,92.5C 162.338,92.3875 161.171,93.0542 160.5,94.5C 161.274,95.7112 162.107,95.7112 163,94.5C 164.633,96.4529 165.799,98.6196 166.5,101C 166.316,102.376 165.649,103.209 164.5,103.5C 163.699,101.958 163.366,100.292 163.5,98.5C 162.5,98.5 161.5,98.5 160.5,98.5C 160.5,105.167 160.5,111.833 160.5,118.5C 159.5,120.5 158.5,122.5 157.5,124.5C 156.504,124.414 155.671,124.748 155,125.5C 153.797,121.89 152.797,118.224 152,114.5C 150.583,113.922 149.75,112.922 149.5,111.5C 151.218,104.809 152.884,98.142 154.5,91.5C 155.947,90.3778 156.947,88.8778 157.5,87C 161.828,86.2763 165.828,87.1096 169.5,89.5 Z"/></g>
<g><path style="opacity:1" fill="#fc66c2" d="M 371.5,88.5 C 371.319,91.7853 370.319,94.7853 368.5,97.5C 370.82,104.812 371.154,111.978 369.5,119C 370.044,119.717 370.711,120.217 371.5,120.5C 370.843,126.002 369.01,131.002 366,135.5C 365.505,137.473 365.338,139.473 365.5,141.5C 363.787,142.635 363.12,144.302 363.5,146.5C 362.107,147.26 360.607,147.926 359,148.5C 356.774,147.967 354.607,147.3 352.5,146.5C 352.5,146.167 352.5,145.833 352.5,145.5C 351.949,142.193 351.616,138.86 351.5,135.5C 351.5,135.167 351.5,134.833 351.5,134.5C 355.303,131.107 356.969,126.773 356.5,121.5C 357.15,121.804 357.817,122.137 358.5,122.5C 359.603,116.678 360.936,111.012 362.5,105.5C 365.331,102.912 366.665,99.5788 366.5,95.5C 366.5,95.1667 366.5,94.8333 366.5,94.5C 368.167,92.5 369.833,90.5 371.5,88.5 Z"/></g>
<g><path style="opacity:1" fill="#f76bbf" d="M 429.5,135.5 C 429.5,136.167 429.167,136.5 428.5,136.5C 428.5,136.167 428.5,135.833 428.5,135.5C 428.829,132.772 428.163,130.438 426.5,128.5C 426.5,127.833 426.5,127.167 426.5,126.5C 426.557,121.469 425.557,116.802 423.5,112.5C 423.5,112.167 423.5,111.833 423.5,111.5C 423.106,107.594 421.94,103.928 420,100.5C 420.203,104.263 421.036,107.93 422.5,111.5C 422.5,120.167 422.5,128.833 422.5,137.5C 422.167,137.5 421.833,137.5 421.5,137.5C 421.666,130.159 421.5,122.826 421,115.5C 420.814,117.9 420.314,120.234 419.5,122.5C 418.914,122.291 418.414,121.957 418,121.5C 417.667,116.833 417.333,112.167 417,107.5C 416.61,104.896 415.776,102.562 414.5,100.5C 417.018,98.6434 417.018,96.8101 414.5,95C 416.259,94.2025 417.926,94.3691 419.5,95.5C 421.632,98.8961 422.965,102.563 423.5,106.5C 425.167,106.5 426.833,106.5 428.5,106.5C 428.193,112.093 428.527,117.593 429.5,123C 428.643,123.689 427.977,124.522 427.5,125.5C 429.289,128.556 429.956,131.889 429.5,135.5 Z"/></g>
<g><path style="opacity:0.933" fill="#f5addb" d="M 179.5,105.5 C 180.924,107.515 181.59,109.848 181.5,112.5C 180.076,110.485 179.41,108.152 179.5,105.5 Z"/></g>
<g><path style="opacity:0.573" fill="#ffb7ec" d="M 163.5,106.5 C 162.833,109.5 162.167,112.5 161.5,115.5C 161.334,111.154 161.501,106.821 162,102.5C 162.791,103.745 163.291,105.078 163.5,106.5 Z"/></g>
<g><path style="opacity:0.42" fill="#feb6f2" d="M 423.5,111.5 C 423.167,111.5 422.833,111.5 422.5,111.5C 421.036,107.93 420.203,104.263 420,100.5C 421.94,103.928 423.106,107.594 423.5,111.5 Z"/></g>
<g><path style="opacity:0.334" fill="#ffdbf8" d="M 314.5,91.5 C 315.338,91.8417 315.672,92.5084 315.5,93.5C 315.5,99.1667 315.5,104.833 315.5,110.5C 322.354,110.176 329.021,110.509 335.5,111.5C 328.5,111.5 321.5,111.5 314.5,111.5C 314.5,104.833 314.5,98.1667 314.5,91.5 Z"/></g>
<g><path style="opacity:1" fill="#fd65c4" d="M 246.5,94.5 C 247.79,95.0577 248.623,96.0577 249,97.5C 249.5,109.495 249.667,121.495 249.5,133.5C 246.431,133.037 245.931,131.704 248,129.5C 248.499,124.511 248.666,119.511 248.5,114.5C 247.5,114.5 246.5,114.5 245.5,114.5C 244.886,122.609 245.553,130.442 247.5,138C 246.781,140.556 245.114,141.723 242.5,141.5C 242.33,142.822 242.663,143.989 243.5,145C 243.167,145.167 242.833,145.333 242.5,145.5C 241.24,143.647 241.24,141.814 242.5,140C 241.874,139.25 241.374,138.416 241,137.5C 240.796,124.455 240.296,111.455 239.5,98.5C 240.5,98.5 241.5,98.5 242.5,98.5C 242.5,97.1667 242.5,95.8333 242.5,94.5C 243.833,94.5 245.167,94.5 246.5,94.5 Z"/></g>
<g><path style="opacity:1" fill="#f273c0" d="M 245.5,89.5 C 248.45,91.7275 250.116,94.7275 250.5,98.5C 250.828,110.678 250.495,122.678 249.5,134.5C 249.5,134.167 249.5,133.833 249.5,133.5C 249.667,121.495 249.5,109.495 249,97.5C 248.623,96.0577 247.79,95.0577 246.5,94.5C 245.699,92.9582 245.366,91.2915 245.5,89.5 Z"/></g>
<g><path style="opacity:0.58" fill="#fbc3e9" d="M 269.5,96.5 C 270.487,101.305 270.821,106.305 270.5,111.5C 279.5,111.5 288.5,111.5 297.5,111.5C 297.5,115.833 297.5,120.167 297.5,124.5C 291.31,124.823 285.31,124.49 279.5,123.5C 285.167,123.5 290.833,123.5 296.5,123.5C 296.5,119.833 296.5,116.167 296.5,112.5C 287.5,112.5 278.5,112.5 269.5,112.5C 269.5,107.167 269.5,101.833 269.5,96.5 Z"/></g>
<g><path style="opacity:1" fill="#e880bf" d="M 314.5,111.5 C 321.5,111.5 328.5,111.5 335.5,111.5C 338.089,111.461 340.089,112.461 341.5,114.5C 339.565,113.85 337.565,113.517 335.5,113.5C 328.5,112.833 321.5,112.167 314.5,111.5 Z"/></g>
<g><path style="opacity:1" fill="#f486c8" d="M 473.5,142.5 C 473.5,143.833 473.5,145.167 473.5,146.5C 472.71,147.794 471.71,148.961 470.5,150C 467.964,150.339 465.464,150.839 463,151.5C 462.228,151.355 461.561,151.022 461,150.5C 460.5,138.505 460.333,126.505 460.5,114.5C 461.434,113.432 461.768,112.099 461.5,110.5C 463.068,107.305 463.902,103.972 464,100.5C 463.722,101.416 463.222,102.082 462.5,102.5C 462.5,101.167 462.5,99.8333 462.5,98.5C 463.75,98.4226 464.583,97.756 465,96.5C 465.944,97.263 466.444,98.263 466.5,99.5C 465.045,104.446 463.878,109.446 463,114.5C 462.5,126.162 462.333,137.829 462.5,149.5C 465.564,149.072 468.564,148.406 471.5,147.5C 471.077,145.219 471.744,143.552 473.5,142.5 Z"/></g>
<g><path style="opacity:1" fill="#ee82c5" d="M 6.5,108.5 C 8.37977,111.11 10.7131,113.443 13.5,115.5C 15.6869,114.242 18.0202,113.242 20.5,112.5C 21.4164,112.543 22.0831,112.876 22.5,113.5C 21.5084,113.328 20.8417,113.662 20.5,114.5C 12.6404,119.993 7.9737,117.993 6.5,108.5 Z"/></g>
<g><path style="opacity:1" fill="#e978bc" d="M 270.5,92.5 C 269.566,93.5676 269.232,94.901 269.5,96.5C 269.5,101.833 269.5,107.167 269.5,112.5C 278.5,112.5 287.5,112.5 296.5,112.5C 296.5,116.167 296.5,119.833 296.5,123.5C 290.833,123.5 285.167,123.5 279.5,123.5C 275.981,123.741 273.315,122.407 271.5,119.5C 271.013,118.527 270.513,117.527 270,116.5C 269.5,125.827 269.334,135.161 269.5,144.5C 268.507,136.016 268.174,127.349 268.5,118.5C 268.5,116.167 268.5,113.833 268.5,111.5C 268.169,104.137 268.503,96.8032 269.5,89.5C 270.386,90.325 270.719,91.325 270.5,92.5 Z"/></g>
<g><path style="opacity:0.98" fill="#ef9fd2" d="M 392.5,104.5 C 394.125,108.303 395.458,112.303 396.5,116.5C 395.272,115.694 394.272,114.694 393.5,113.5C 393.296,110.482 392.963,107.482 392.5,104.5 Z"/></g>
<g><path style="opacity:1" fill="#f2a1d4" d="M 91.5,114.5 C 85.161,113.232 78.8276,113.232 72.5,114.5C 78.7967,110.65 85.13,110.65 91.5,114.5 Z"/></g>
<g><path style="opacity:1" fill="#fa68c1" d="M 72.5,114.5 C 78.8276,113.232 85.161,113.232 91.5,114.5C 95.5,116.5 98.5,119.5 100.5,123.5C 101.275,128.797 101.608,134.13 101.5,139.5C 99.281,140.828 97.9477,142.828 97.5,145.5C 96.1667,145.5 94.8333,145.5 93.5,145.5C 93.5,146.833 93.5,148.167 93.5,149.5C 92.1779,149.67 91.0113,149.337 90,148.5C 89.5078,149.549 89.6744,150.549 90.5,151.5C 89.9984,152.521 89.3317,152.688 88.5,152C 87.8617,150.293 87.8617,148.46 88.5,146.5C 93.7269,145.726 96.0602,142.726 95.5,137.5C 97.3371,134.481 97.8371,131.148 97,127.5C 96.0922,125.561 94.5922,124.561 92.5,124.5C 91.8333,123.5 91.1667,122.5 90.5,121.5C 90.4226,120.25 89.756,119.417 88.5,119C 83.4028,116.849 78.4028,117.016 73.5,119.5C 70.835,118.112 69.835,119.112 70.5,122.5C 69.1667,122.5 67.8333,122.5 66.5,122.5C 66.0269,121.094 65.0269,120.427 63.5,120.5C 63.4226,119.25 62.756,118.417 61.5,118C 55.9286,117.012 50.5952,117.678 45.5,120C 46.2524,120.671 46.5858,121.504 46.5,122.5C 45.1266,122.343 43.7932,122.51 42.5,123C 43.1359,125.394 43.1359,127.894 42.5,130.5C 42.5,132.167 42.5,133.833 42.5,135.5C 42.4433,137.884 42.7766,140.218 43.5,142.5C 44.9301,144.386 46.5968,146.053 48.5,147.5C 48,147.833 47.5,148.167 47,148.5C 45.016,147.661 43.1826,146.661 41.5,145.5C 37.7189,140.233 36.0522,134.233 36.5,127.5C 36.5,127.167 36.5,126.833 36.5,126.5C 39.4938,121.841 43.1604,117.841 47.5,114.5C 55.3051,112.479 62.6384,113.479 69.5,117.5C 71.1753,117.132 72.1753,116.132 72.5,114.5 Z"/></g>
<g><path style="opacity:1" fill="#fd65c3" d="M 268.5,111.5 C 268.5,113.833 268.5,116.167 268.5,118.5C 267.672,124.653 267.172,130.987 267,137.5C 266.751,136.376 266.251,135.376 265.5,134.5C 264.833,138.647 264.166,142.647 263.5,146.5C 261.958,145.699 260.292,145.366 258.5,145.5C 258.245,142.984 257.411,140.65 256,138.5C 255.231,123.141 255.398,107.808 256.5,92.5C 257.5,91.8333 258.5,91.1667 259.5,90.5C 262.064,88.7092 263.731,89.3759 264.5,92.5C 263.919,94.8873 263.919,97.3873 264.5,100C 264.833,101.5 265.167,103 265.5,104.5C 266.086,104.291 266.586,103.957 267,103.5C 267.183,106.365 267.683,109.031 268.5,111.5 Z"/></g>
<g><path style="opacity:1" fill="#fd66c1" d="M 271.5,113.5 C 279.5,113.5 287.5,113.5 295.5,113.5C 295.5,116.5 295.5,119.5 295.5,122.5C 289.491,122.666 283.491,122.499 277.5,122C 274.08,120.093 272.08,117.26 271.5,113.5 Z"/></g>
<g><path style="opacity:0.929" fill="#f19cd1" d="M 72.5,114.5 C 72.1753,116.132 71.1753,117.132 69.5,117.5C 62.6384,113.479 55.3051,112.479 47.5,114.5C 54.69,110.726 61.8567,111.06 69,115.5C 70.1385,115.011 71.3052,114.678 72.5,114.5 Z"/></g>
<g><path style="opacity:1" fill="#ec8cc5" d="M 131.5,108.5 C 131.833,108.5 132.167,108.5 132.5,108.5C 131.223,111.553 129.556,114.386 127.5,117C 123.966,117.864 120.966,117.031 118.5,114.5C 121.482,114.963 124.482,115.296 127.5,115.5C 128.097,112.626 129.431,110.292 131.5,108.5 Z"/></g>
<g><path style="opacity:0.949" fill="#e97cc0" d="M 256.5,92.5 C 255.398,107.808 255.231,123.141 256,138.5C 257.411,140.65 258.245,142.984 258.5,145.5C 256.864,144.251 255.697,142.584 255,140.5C 254.333,125.167 254.333,109.833 255,94.5C 255.278,93.5842 255.778,92.9175 256.5,92.5 Z"/></g>
<g><path style="opacity:1" fill="#f181c3" d="M 377.5,109.5 C 379.335,110.122 380.502,111.456 381,113.5C 381.735,117.813 382.235,122.147 382.5,126.5C 381.262,124.786 380.595,122.786 380.5,120.5C 380.706,117.505 380.04,114.838 378.5,112.5C 377.596,111.791 377.263,110.791 377.5,109.5 Z"/></g>
<g><path style="opacity:0.969" fill="#f4a6d9" d="M 423.5,112.5 C 425.557,116.802 426.557,121.469 426.5,126.5C 425.215,123.411 424.549,120.078 424.5,116.5C 423.766,115.292 423.433,113.959 423.5,112.5 Z"/></g>
<g><path style="opacity:1" fill="#f199cc" d="M 47.5,114.5 C 43.1604,117.841 39.4938,121.841 36.5,126.5C 38.0979,120.57 41.7645,116.57 47.5,114.5 Z"/></g>
<g><path style="opacity:1" fill="#eea5d6" d="M 146.5,113.5 C 146.834,116.491 145.834,118.824 143.5,120.5C 143.935,117.843 144.935,115.509 146.5,113.5 Z"/></g>
<g><path style="opacity:1" fill="#ee98ca" d="M 301.5,115.5 C 302.167,115.5 302.833,115.5 303.5,115.5C 304.921,119.039 307.255,121.706 310.5,123.5C 310.5,123.833 310.5,124.167 310.5,124.5C 305.833,123.167 302.833,120.167 301.5,115.5 Z"/></g>
<g><path style="opacity:0.992" fill="#f28fc9" d="M 462.5,104.5 C 461.637,106.421 460.971,108.421 460.5,110.5C 460.5,111.833 460.5,113.167 460.5,114.5C 459.232,116.905 458.565,119.572 458.5,122.5C 458.167,122.5 457.833,122.5 457.5,122.5C 457.085,116.731 458.085,111.231 460.5,106C 460.836,104.97 461.503,104.47 462.5,104.5 Z"/></g>
<g><path style="opacity:1" fill="#f18ac6" d="M 63.5,120.5 C 57.4761,118.735 51.8094,119.401 46.5,122.5C 46.5858,121.504 46.2524,120.671 45.5,120C 50.5952,117.678 55.9286,117.012 61.5,118C 62.756,118.417 63.4226,119.25 63.5,120.5 Z"/></g>
<g><path style="opacity:1" fill="#fb66c2" d="M 149.5,111.5 C 149.75,112.922 150.583,113.922 152,114.5C 152.797,118.224 153.797,121.89 155,125.5C 155.671,124.748 156.504,124.414 157.5,124.5C 156.85,126.435 156.517,128.435 156.5,130.5C 155.5,130.5 154.5,130.5 153.5,130.5C 152.452,136.648 150.785,142.648 148.5,148.5C 146.955,149.452 145.288,149.785 143.5,149.5C 142.749,147.287 141.582,145.287 140,143.5C 139.436,138.806 139.603,134.14 140.5,129.5C 140.5,129.167 140.5,128.833 140.5,128.5C 142.834,126.824 143.834,124.491 143.5,121.5C 143.5,121.167 143.5,120.833 143.5,120.5C 145.834,118.824 146.834,116.491 146.5,113.5C 146.5,113.167 146.5,112.833 146.5,112.5C 147.391,111.89 148.391,111.557 149.5,111.5 Z"/></g>
<g><path style="opacity:0.855" fill="#f3aad8" d="M 181.5,112.5 C 182.924,114.515 183.59,116.848 183.5,119.5C 182.076,117.485 181.41,115.152 181.5,112.5 Z"/></g>
<g><path style="opacity:1" fill="#f295cd" d="M 90.5,121.5 C 82.8341,118.099 75.8341,119.099 69.5,124.5C 68.2613,124.058 67.2613,123.391 66.5,122.5C 67.8333,122.5 69.1667,122.5 70.5,122.5C 69.835,119.112 70.835,118.112 73.5,119.5C 78.4028,117.016 83.4028,116.849 88.5,119C 89.756,119.417 90.4226,120.25 90.5,121.5 Z"/></g>
<g><path style="opacity:0.614" fill="#f9c1e1" d="M 474.5,92.5 C 476.48,109.347 476.646,126.347 475,143.5C 474.768,144.737 474.268,145.737 473.5,146.5C 473.5,145.167 473.5,143.833 473.5,142.5C 473.5,141.833 473.5,141.167 473.5,140.5C 474.496,124.675 474.83,108.675 474.5,92.5 Z"/></g>
<g><path style="opacity:0.745" fill="#fec6e9" d="M 63.5,120.5 C 65.0269,120.427 66.0269,121.094 66.5,122.5C 64.9731,122.573 63.9731,121.906 63.5,120.5 Z"/></g>
<g><path style="opacity:1" fill="#fb67c1" d="M 131.5,108.5 C 129.431,110.292 128.097,112.626 127.5,115.5C 124.482,115.296 121.482,114.963 118.5,114.5C 117.5,113.167 116.5,113.167 115.5,114.5C 114.673,119.651 114.173,124.984 114,130.5C 113.553,147.719 113.386,164.719 113.5,181.5C 113.196,179.204 112.196,178.871 110.5,180.5C 110.5,156.5 110.5,132.5 110.5,108.5C 109.167,108.5 107.833,108.5 106.5,108.5C 106.586,107.504 106.252,106.671 105.5,106C 103.481,105.55 101.648,104.717 100,103.5C 99.4719,102.184 99.9719,101.517 101.5,101.5C 105.615,102.095 109.615,103.095 113.5,104.5C 113.833,104.5 114.167,104.5 114.5,104.5C 114.414,105.496 114.748,106.329 115.5,107C 117.839,108.323 120.005,109.823 122,111.5C 122.995,110.934 123.828,110.267 124.5,109.5C 125.79,108.942 126.623,107.942 127,106.5C 127.497,104.19 127.663,101.857 127.5,99.5C 128.833,99.5 130.167,99.5 131.5,99.5C 131.5,102.5 131.5,105.5 131.5,108.5 Z"/></g>
<g><path style="opacity:1" fill="#f29acf" d="M 114.5,104.5 C 117.66,106.419 120.994,107.752 124.5,108.5C 124.5,108.833 124.5,109.167 124.5,109.5C 123.828,110.267 122.995,110.934 122,111.5C 120.005,109.823 117.839,108.323 115.5,107C 114.748,106.329 114.414,105.496 114.5,104.5 Z"/></g>
<g><path style="opacity:0.859" fill="#f4acda" d="M 165.5,114.5 C 166.649,114.791 167.316,115.624 167.5,117C 168.159,119.462 168.493,121.962 168.5,124.5C 167.13,121.381 166.13,118.048 165.5,114.5 Z"/></g>
<g><path style="opacity:0.973" fill="#f5a5d9" d="M 438.5,114.5 C 439.925,117.903 440.758,121.57 441,125.5C 441.383,124.944 441.883,124.611 442.5,124.5C 442.662,126.527 442.495,128.527 442,130.5C 440.724,128.142 439.558,125.808 438.5,123.5C 438.5,120.5 438.5,117.5 438.5,114.5 Z"/></g>
<g><path style="opacity:1" fill="#fd65c2" d="M 14.5,99.5 C 13.0484,100.302 11.3817,100.802 9.5,101C 11.6044,101.489 11.9378,102.655 10.5,104.5C 10.9826,110.85 13.9826,112.684 19.5,110C 21.7039,108.25 23.7039,106.417 25.5,104.5C 28.7659,104.371 31.7659,103.371 34.5,101.5C 36.1112,102.32 36.7778,103.654 36.5,105.5C 34.7376,105.643 33.0709,105.309 31.5,104.5C 30.6781,106.139 30.0114,107.805 29.5,109.5C 27.8202,132.521 26.8202,155.854 26.5,179.5C 26.9569,180.298 27.6236,180.631 28.5,180.5C 28.8333,180.5 29.1667,180.5 29.5,180.5C 30.0906,181.151 30.7573,181.818 31.5,182.5C 29.604,183.466 27.604,183.799 25.5,183.5C 25.405,181.214 24.7384,179.214 23.5,177.5C 23.8306,156.327 23.4973,135.327 22.5,114.5C 22.5,114.167 22.5,113.833 22.5,113.5C 22.0831,112.876 21.4164,112.543 20.5,112.5C 18.0202,113.242 15.6869,114.242 13.5,115.5C 10.7131,113.443 8.37977,111.11 6.5,108.5C 5.53978,105.098 5.53978,101.765 6.5,98.5C 8.40078,98.5668 10.2341,98.2335 12,97.5C 13.301,97.6387 14.1344,98.3054 14.5,99.5 Z"/></g>
<g><path style="opacity:1" fill="#f187c5" d="M 362.5,105.5 C 360.936,111.012 359.603,116.678 358.5,122.5C 357.817,122.137 357.15,121.804 356.5,121.5C 357.932,115.859 359.932,110.525 362.5,105.5 Z"/></g>
<g><path style="opacity:1" fill="#f49fd6" d="M 46.5,122.5 C 45.1473,125.205 43.8139,127.872 42.5,130.5C 43.1359,127.894 43.1359,125.394 42.5,123C 43.7932,122.51 45.1266,122.343 46.5,122.5 Z"/></g>
<g><path style="opacity:0.941" fill="#f7b0dc" d="M 183.5,119.5 C 185.277,122.505 186.277,125.838 186.5,129.5C 185.833,128.5 185.167,127.5 184.5,126.5C 184.007,124.194 183.674,121.861 183.5,119.5 Z"/></g>
<g><path style="opacity:1" fill="#f76bc0" d="M 335.5,113.5 C 337.565,113.517 339.565,113.85 341.5,114.5C 343.262,115.262 344.262,116.596 344.5,118.5C 344.5,122.833 344.5,127.167 344.5,131.5C 343.834,127.316 343.167,122.982 342.5,118.5C 341.914,118.291 341.414,117.957 341,117.5C 339.873,120.377 339.206,123.377 339,126.5C 338.1,127.77 336.934,128.77 335.5,129.5C 335.896,132.428 336.063,135.428 336,138.5C 337.835,140.449 339.001,142.783 339.5,145.5C 340.182,142.818 341.848,141.152 344.5,140.5C 343.28,142.282 342.614,144.282 342.5,146.5C 342.5,147.167 342.167,147.5 341.5,147.5C 340.167,147.5 338.833,147.5 337.5,147.5C 336.897,144.692 335.897,142.026 334.5,139.5C 333.831,141.631 333.165,143.631 332.5,145.5C 332.5,138.5 332.5,131.5 332.5,124.5C 325.5,124.5 318.5,124.5 311.5,124.5C 311.167,124.5 310.833,124.5 310.5,124.5C 310.5,124.167 310.5,123.833 310.5,123.5C 319.192,123.831 327.859,123.498 336.5,122.5C 336.709,121.914 337.043,121.414 337.5,121C 336.645,118.564 335.979,116.064 335.5,113.5 Z"/></g>
<g><path style="opacity:1" fill="#f4a2d6" d="M 143.5,121.5 C 143.834,124.491 142.834,126.824 140.5,128.5C 140.935,125.843 141.935,123.509 143.5,121.5 Z"/></g>
<g><path style="opacity:0.427" fill="#fdd2ef" d="M 422.5,111.5 C 422.833,111.5 423.167,111.5 423.5,111.5C 423.5,111.833 423.5,112.167 423.5,112.5C 423.433,113.959 423.766,115.292 424.5,116.5C 423.833,123.833 423.167,131.167 422.5,138.5C 422.5,138.167 422.5,137.833 422.5,137.5C 422.5,128.833 422.5,120.167 422.5,111.5 Z"/></g>
<g><path style="opacity:0.204" fill="#ffd0fc" d="M 271.5,119.5 C 270.167,127.833 270.167,136.167 271.5,144.5C 270.833,145.833 270.167,145.833 269.5,144.5C 269.334,135.161 269.5,125.827 270,116.5C 270.513,117.527 271.013,118.527 271.5,119.5 Z"/></g>
<g><path style="opacity:0.984" fill="#ef9cd3" d="M 344.5,118.5 C 345.268,119.263 345.768,120.263 346,121.5C 346.667,127.5 346.667,133.5 346,139.5C 345.861,142.445 344.694,144.779 342.5,146.5C 342.614,144.282 343.28,142.282 344.5,140.5C 344.5,137.5 344.5,134.5 344.5,131.5C 344.5,127.167 344.5,122.833 344.5,118.5 Z"/></g>
<g><path style="opacity:1" fill="#fb69c3" d="M 393.5,113.5 C 394.272,114.694 395.272,115.694 396.5,116.5C 396.5,117.167 396.5,117.833 396.5,118.5C 396.804,121.522 397.304,124.522 398,127.5C 398.377,128.942 399.21,129.942 400.5,130.5C 400.5,131.167 400.5,131.833 400.5,132.5C 401.379,138.223 402.379,143.889 403.5,149.5C 400.482,149.665 397.482,149.498 394.5,149C 393.09,147.628 391.423,146.795 389.5,146.5C 389.88,144.302 389.213,142.635 387.5,141.5C 384.482,141.665 381.482,141.498 378.5,141C 376.416,140.303 374.749,139.136 373.5,137.5C 372.25,134.994 371.584,132.327 371.5,129.5C 375.182,129.665 378.848,129.499 382.5,129C 383.774,128.023 383.774,127.189 382.5,126.5C 382.235,122.147 381.735,117.813 381,113.5C 380.502,111.456 379.335,110.122 377.5,109.5C 377.5,109.167 377.5,108.833 377.5,108.5C 377.736,105.774 376.903,103.441 375,101.5C 374.501,106.823 374.334,112.156 374.5,117.5C 374.5,117.833 374.5,118.167 374.5,118.5C 373.833,119.167 373.167,119.833 372.5,120.5C 373.056,112.808 373.723,105.141 374.5,97.5C 371.371,93.4763 372.038,92.1429 376.5,93.5C 376.679,95.6056 377.679,97.2723 379.5,98.5C 380.208,101.366 380.875,104.2 381.5,107C 380.978,107.561 380.645,108.228 380.5,109C 382.461,115.151 384.461,121.317 386.5,127.5C 385.833,128.167 385.167,128.833 384.5,129.5C 385,129.833 385.5,130.167 386,130.5C 389.719,129.934 391.885,127.934 392.5,124.5C 393.5,124.5 394.5,124.5 395.5,124.5C 395.13,120.767 394.463,117.101 393.5,113.5 Z"/></g>
<g><path style="opacity:0.612" fill="#fabce6" d="M 378.5,112.5 C 380.04,114.838 380.706,117.505 380.5,120.5C 379.232,118.095 378.565,115.428 378.5,112.5 Z"/></g>
<g><path style="opacity:0.843" fill="#f3acdb" d="M 377.5,108.5 C 376.732,107.737 376.232,106.737 376,105.5C 375.505,107.473 375.338,109.473 375.5,111.5C 375.795,113.735 375.461,115.735 374.5,117.5C 374.334,112.156 374.501,106.823 375,101.5C 376.903,103.441 377.736,105.774 377.5,108.5 Z"/></g>
<g><path style="opacity:0.008" fill="#fefffe" d="M 377.5,108.5 C 377.5,108.833 377.5,109.167 377.5,109.5C 376.833,110.167 376.167,110.833 375.5,111.5C 375.338,109.473 375.505,107.473 376,105.5C 376.232,106.737 376.732,107.737 377.5,108.5 Z"/></g>
<g><path style="opacity:0.984" fill="#f399cd" d="M 396.5,118.5 C 398.125,122.303 399.458,126.303 400.5,130.5C 399.21,129.942 398.377,128.942 398,127.5C 397.304,124.522 396.804,121.522 396.5,118.5 Z"/></g>
<g><path style="opacity:0.333" fill="#facce8" d="M 457.5,122.5 C 457.833,122.5 458.167,122.5 458.5,122.5C 458.073,125.01 457.407,127.343 456.5,129.5C 456.298,127.05 456.631,124.717 457.5,122.5 Z"/></g>
<g><path style="opacity:0.622" fill="#f1a6d5" d="M 233.5,98.5 C 234.833,98.5 236.167,98.5 237.5,98.5C 238.621,114.468 238.788,130.468 238,146.5C 236.961,145.756 236.461,144.756 236.5,143.5C 237.661,130.006 237.827,116.34 237,102.5C 235.624,101.295 234.458,99.9616 233.5,98.5 Z"/></g>
<g><path style="opacity:0.712" fill="#f3b4da" d="M 208.5,114.5 C 208.833,114.5 209.167,114.5 209.5,114.5C 209.334,121.841 209.5,129.174 210,136.5C 215.025,136.489 220.191,136.655 225.5,137C 227.058,137.21 228.391,137.71 229.5,138.5C 222.412,138.795 215.412,138.462 208.5,137.5C 208.5,129.833 208.5,122.167 208.5,114.5 Z"/></g>
<g><path style="opacity:0.737" fill="#f59dd2" d="M 374.5,118.5 C 374.105,121.686 373.105,124.686 371.5,127.5C 374.784,128.657 378.118,128.824 381.5,128C 382.056,127.617 382.389,127.117 382.5,126.5C 383.774,127.189 383.774,128.023 382.5,129C 378.848,129.499 375.182,129.665 371.5,129.5C 371.584,132.327 372.25,134.994 373.5,137.5C 371.864,136.251 370.697,134.584 370,132.5C 368.47,135.561 366.97,138.561 365.5,141.5C 365.338,139.473 365.505,137.473 366,135.5C 369.01,131.002 370.843,126.002 371.5,120.5C 371.833,120.5 372.167,120.5 372.5,120.5C 373.167,119.833 373.833,119.167 374.5,118.5 Z"/></g>
<g><path style="opacity:0.236" fill="#ffd8f9" d="M 20.5,114.5 C 20.8417,113.662 21.5084,113.328 22.5,113.5C 22.5,113.833 22.5,114.167 22.5,114.5C 22.5,137.833 22.5,161.167 22.5,184.5C 21.8333,161.167 21.1667,137.833 20.5,114.5 Z"/></g>
<g><path style="opacity:0.643" fill="#f59bd3" d="M 160.5,118.5 C 160.833,118.5 161.167,118.5 161.5,118.5C 160.492,121.844 159.492,125.177 158.5,128.5C 161.833,128.5 165.167,128.5 168.5,128.5C 168.5,127.5 168.5,126.5 168.5,125.5C 169.434,126.568 169.768,127.901 169.5,129.5C 165.958,129.187 162.625,129.521 159.5,130.5C 158.709,132.309 158.709,134.309 159.5,136.5C 158.034,135.653 157.2,134.32 157,132.5C 154.022,137.925 151.522,143.591 149.5,149.5C 147.364,150.793 145.364,150.793 143.5,149.5C 145.288,149.785 146.955,149.452 148.5,148.5C 150.785,142.648 152.452,136.648 153.5,130.5C 154.5,130.5 155.5,130.5 156.5,130.5C 156.517,128.435 156.85,126.435 157.5,124.5C 158.5,122.5 159.5,120.5 160.5,118.5 Z"/></g>
<g><path style="opacity:0.822" fill="#e897cb" d="M 106.5,108.5 C 107.833,108.5 109.167,108.5 110.5,108.5C 110.5,132.5 110.5,156.5 110.5,180.5C 110.167,180.5 109.833,180.5 109.5,180.5C 109.5,179.833 109.5,179.167 109.5,178.5C 109.667,155.831 109.5,133.164 109,110.5C 108.005,109.934 107.172,109.267 106.5,108.5 Z"/></g>
<g><path style="opacity:0.292" fill="#ffd0f4" d="M 311.5,124.5 C 318.5,124.5 325.5,124.5 332.5,124.5C 332.5,131.5 332.5,138.5 332.5,145.5C 332.565,145.938 332.399,146.272 332,146.5C 331.487,145.473 330.987,144.473 330.5,143.5C 330.5,143.167 330.5,142.833 330.5,142.5C 331.489,137.025 331.822,131.358 331.5,125.5C 324.646,125.824 317.979,125.491 311.5,124.5 Z"/></g>
<g><path style="opacity:0.992" fill="#f099ce" d="M 356.5,121.5 C 356.969,126.773 355.303,131.107 351.5,134.5C 352.931,129.989 354.598,125.655 356.5,121.5 Z"/></g>
<g><path style="opacity:1" fill="#fd65c3" d="M 409.5,98.5 C 411.592,98.5614 413.092,99.5614 414,101.5C 414.399,101.272 414.565,100.938 414.5,100.5C 415.776,102.562 416.61,104.896 417,107.5C 417.333,112.167 417.667,116.833 418,121.5C 418.414,121.957 418.914,122.291 419.5,122.5C 420.314,120.234 420.814,117.9 421,115.5C 421.5,122.826 421.666,130.159 421.5,137.5C 420.805,144.862 416.805,148.862 409.5,149.5C 409.5,132.5 409.5,115.5 409.5,98.5 Z"/></g>
<g><path style="opacity:1" fill="#ed7ec2" d="M 22.5,114.5 C 23.4973,135.327 23.8306,156.327 23.5,177.5C 23.5,179.833 23.5,182.167 23.5,184.5C 29.4549,185.363 35.4549,185.697 41.5,185.5C 66.1667,185.5 90.8333,185.5 115.5,185.5C 85.0027,186.664 54.3361,186.831 23.5,186C 22.944,185.617 22.6107,185.117 22.5,184.5C 22.5,161.167 22.5,137.833 22.5,114.5 Z"/></g>
<g><path style="opacity:0.796" fill="#f6a5d6" d="M 100.5,123.5 C 102.006,126.356 102.672,129.523 102.5,133C 102.496,135.361 102.163,137.527 101.5,139.5C 101.608,134.13 101.275,128.797 100.5,123.5 Z"/></g>
<g><path style="opacity:1" fill="#f26cbc" d="M 115.5,114.5 C 115.5,137.833 115.5,161.167 115.5,184.5C 115.5,184.833 115.5,185.167 115.5,185.5C 90.8333,185.5 66.1667,185.5 41.5,185.5C 65.3275,184.502 89.3275,184.169 113.5,184.5C 113.5,183.5 113.5,182.5 113.5,181.5C 113.386,164.719 113.553,147.719 114,130.5C 114.173,124.984 114.673,119.651 115.5,114.5 Z"/></g>
<g><path style="opacity:0.504" fill="#ffb0e5" d="M 118.5,114.5 C 116.836,137.649 115.836,160.982 115.5,184.5C 115.5,161.167 115.5,137.833 115.5,114.5C 116.5,113.167 117.5,113.167 118.5,114.5 Z"/></g>
<g><path style="opacity:1" fill="#fd65c4" d="M 344.5,131.5 C 344.5,134.5 344.5,137.5 344.5,140.5C 341.848,141.152 340.182,142.818 339.5,145.5C 339.001,142.783 337.835,140.449 336,138.5C 336.063,135.428 335.896,132.428 335.5,129.5C 336.934,128.77 338.1,127.77 339,126.5C 339.206,123.377 339.873,120.377 341,117.5C 341.414,117.957 341.914,118.291 342.5,118.5C 343.167,122.982 343.834,127.316 344.5,131.5 Z"/></g>
<g><path style="opacity:0.835" fill="#f6afde" d="M 426.5,128.5 C 428.163,130.438 428.829,132.772 428.5,135.5C 427.388,133.401 426.721,131.067 426.5,128.5 Z"/></g>
<g><path style="opacity:1" fill="#f28ac7" d="M 92.5,124.5 C 94.5922,124.561 96.0922,125.561 97,127.5C 97.8371,131.148 97.3371,134.481 95.5,137.5C 96.1608,132.684 95.1608,128.351 92.5,124.5 Z"/></g>
<g><path style="opacity:0.988" fill="#f4a5d3" d="M 456.5,130.5 C 456.277,134.162 455.277,137.495 453.5,140.5C 453.804,137.478 454.304,134.478 455,131.5C 455.383,130.944 455.883,130.611 456.5,130.5 Z"/></g>
<g><path style="opacity:1" fill="#fa69c1" d="M 184.5,126.5 C 185.167,127.5 185.833,128.5 186.5,129.5C 186.711,134.6 188.045,139.266 190.5,143.5C 190.674,145.861 191.007,148.194 191.5,150.5C 188.279,150.982 184.946,150.982 181.5,150.5C 178.823,148.164 176.49,145.497 174.5,142.5C 172.012,140.612 169.012,139.945 165.5,140.5C 165.167,140.5 164.833,140.5 164.5,140.5C 164.027,139.094 163.027,138.427 161.5,138.5C 160.5,138.167 159.833,137.5 159.5,136.5C 158.709,134.309 158.709,132.309 159.5,130.5C 159.577,131.75 160.244,132.583 161.5,133C 161.034,134.299 161.034,135.799 161.5,137.5C 165.059,137.284 168.559,137.618 172,138.5C 174.321,137.513 175.987,135.846 177,133.5C 177.561,134.022 178.228,134.355 179,134.5C 180.171,133.66 181.338,132.827 182.5,132C 180.7,129.906 179.7,127.406 179.5,124.5C 180.756,124.001 181.59,122.668 182,120.5C 182.24,122.852 183.073,124.852 184.5,126.5 Z"/></g>
<g><path style="opacity:1" fill="#ee8dc8" d="M 140.5,129.5 C 139.603,134.14 139.436,138.806 140,143.5C 141.582,145.287 142.749,147.287 143.5,149.5C 140.909,148.746 139.076,147.079 138,144.5C 136.871,139.04 137.704,134.04 140.5,129.5 Z"/></g>
<g><path style="opacity:0.773" fill="#f6aad4" d="M 351.5,135.5 C 351.616,138.86 351.949,142.193 352.5,145.5C 351.028,143.883 350.361,141.883 350.5,139.5C 350.511,137.955 350.844,136.622 351.5,135.5 Z"/></g>
<g><path style="opacity:0.357" fill="#f7cbe7" d="M 161.5,138.5 C 163.027,138.427 164.027,139.094 164.5,140.5C 162.973,140.573 161.973,139.906 161.5,138.5 Z"/></g>
<g><path style="opacity:0.898" fill="#f2abd7" d="M 186.5,129.5 C 188.435,133.895 189.769,138.562 190.5,143.5C 188.045,139.266 186.711,134.6 186.5,129.5 Z"/></g>
<g><path style="opacity:0.341" fill="#ffcff4" d="M 165.5,140.5 C 169.012,139.945 172.012,140.612 174.5,142.5C 171.39,141.912 168.39,141.245 165.5,140.5 Z"/></g>
<g><path style="opacity:1" fill="#ee84c4" d="M 208.5,137.5 C 215.412,138.462 222.412,138.795 229.5,138.5C 231.38,138.229 232.713,138.896 233.5,140.5C 225.868,139.642 218.201,139.309 210.5,139.5C 210.5,142.833 210.5,146.167 210.5,149.5C 222.27,149.937 233.936,149.271 245.5,147.5C 243.381,149.717 240.714,151.05 237.5,151.5C 228.168,151.072 218.834,150.738 209.5,150.5C 209.665,147.482 209.498,144.482 209,141.5C 208.283,142.044 207.783,142.711 207.5,143.5C 207.672,144.492 207.338,145.158 206.5,145.5C 206.693,142.692 207.36,140.025 208.5,137.5 Z"/></g>
<g><path style="opacity:1" fill="#fb67c1" d="M 237.5,98.5 C 238.167,98.5 238.833,98.5 239.5,98.5C 240.296,111.455 240.796,124.455 241,137.5C 241.374,138.416 241.874,139.25 242.5,140C 241.24,141.814 241.24,143.647 242.5,145.5C 242.833,145.333 243.167,145.167 243.5,145C 242.663,143.989 242.33,142.822 242.5,141.5C 245.114,141.723 246.781,140.556 247.5,138C 245.553,130.442 244.886,122.609 245.5,114.5C 246.5,114.5 247.5,114.5 248.5,114.5C 248.666,119.511 248.499,124.511 248,129.5C 245.931,131.704 246.431,133.037 249.5,133.5C 249.5,133.833 249.5,134.167 249.5,134.5C 248.633,139.012 247.3,143.345 245.5,147.5C 233.936,149.271 222.27,149.937 210.5,149.5C 210.5,146.167 210.5,142.833 210.5,139.5C 218.201,139.309 225.868,139.642 233.5,140.5C 233.833,140.5 234.167,140.5 234.5,140.5C 234.427,142.027 235.094,143.027 236.5,143.5C 236.461,144.756 236.961,145.756 238,146.5C 238.788,130.468 238.621,114.468 237.5,98.5 Z"/></g>
<g><path style="opacity:0.714" fill="#ffc4ed" d="M 44.5,140.5 C 45.9063,140.973 46.573,141.973 46.5,143.5C 45.0937,143.027 44.427,142.027 44.5,140.5 Z"/></g>
<g><path style="opacity:0.639" fill="#ffcee9" d="M 234.5,140.5 C 235.906,140.973 236.573,141.973 236.5,143.5C 235.094,143.027 234.427,142.027 234.5,140.5 Z"/></g>
<g><path style="opacity:1" fill="#f1a3d0" d="M 250.5,98.5 C 253.235,112.732 253.068,127.066 250,141.5C 249.208,144.106 247.708,146.106 245.5,147.5C 247.3,143.345 248.633,139.012 249.5,134.5C 250.495,122.678 250.828,110.678 250.5,98.5 Z"/></g>
<g><path style="opacity:1" fill="#f189c6" d="M 95.5,137.5 C 96.0602,142.726 93.7269,145.726 88.5,146.5C 91.2463,143.762 93.5797,140.762 95.5,137.5 Z"/></g>
<g><path style="opacity:0.233" fill="#ffcafc" d="M 209.5,150.5 C 208.833,148.167 208.167,145.833 207.5,143.5C 207.783,142.711 208.283,142.044 209,141.5C 209.498,144.482 209.665,147.482 209.5,150.5 Z"/></g>
<g><path style="opacity:1" fill="#fc66c2" d="M 330.5,143.5 C 330.987,144.473 331.487,145.473 332,146.5C 332.399,146.272 332.565,145.938 332.5,145.5C 333.165,143.631 333.831,141.631 334.5,139.5C 335.897,142.026 336.897,144.692 337.5,147.5C 326.215,149.478 314.548,150.145 302.5,149.5C 302.5,146.167 302.5,142.833 302.5,139.5C 309.841,139.334 317.174,139.5 324.5,140C 326.388,141.394 328.388,142.56 330.5,143.5 Z"/></g>
<g><path style="opacity:1" fill="#f49fd1" d="M 429.5,135.5 C 429.833,135.5 430.167,135.5 430.5,135.5C 430.662,139.463 431.662,143.13 433.5,146.5C 430.799,143.765 429.132,140.431 428.5,136.5C 429.167,136.5 429.5,136.167 429.5,135.5 Z"/></g>
<g><path style="opacity:1" fill="#f1a7d2" d="M 36.5,127.5 C 36.0522,134.233 37.7189,140.233 41.5,145.5C 42.1098,146.391 42.4431,147.391 42.5,148.5C 36.0195,142.731 34.0195,135.731 36.5,127.5 Z"/></g>
<g><path style="opacity:0.863" fill="#f7afdc" d="M 365.5,141.5 C 365.598,143.553 364.931,145.22 363.5,146.5C 363.12,144.302 363.787,142.635 365.5,141.5 Z"/></g>
<g><path style="opacity:0.957" fill="#efa4d0" d="M 387.5,141.5 C 389.213,142.635 389.88,144.302 389.5,146.5C 388.069,145.22 387.402,143.553 387.5,141.5 Z"/></g>
<g><path style="opacity:1" fill="#f5a4d5" d="M 174.5,142.5 C 176.49,145.497 178.823,148.164 181.5,150.5C 177.32,149.487 174.987,146.82 174.5,142.5 Z"/></g>
<g><path style="opacity:1" fill="#fc67c1" d="M 268.5,118.5 C 268.174,127.349 268.507,136.016 269.5,144.5C 270.167,145.833 270.833,145.833 271.5,144.5C 271.738,142.596 272.738,141.262 274.5,140.5C 280.805,139.513 287.138,139.347 293.5,140C 295.34,142.826 296.006,145.993 295.5,149.5C 285.828,149.666 276.161,149.5 266.5,149C 265.058,148.623 264.058,147.79 263.5,146.5C 264.166,142.647 264.833,138.647 265.5,134.5C 266.251,135.376 266.751,136.376 267,137.5C 267.172,130.987 267.672,124.653 268.5,118.5 Z"/></g>
<g><path style="opacity:0.898" fill="#f2afd9" d="M 190.5,143.5 C 192.312,145.713 192.645,148.047 191.5,150.5C 191.007,148.194 190.674,145.861 190.5,143.5 Z"/></g>
<g><path style="opacity:1" fill="#ef97cb" d="M 330.5,142.5 C 330.5,142.833 330.5,143.167 330.5,143.5C 328.388,142.56 326.388,141.394 324.5,140C 317.174,139.5 309.841,139.334 302.5,139.5C 302.5,142.833 302.5,146.167 302.5,149.5C 314.548,150.145 326.215,149.478 337.5,147.5C 338.833,147.5 340.167,147.5 341.5,147.5C 340.942,148.79 339.942,149.623 338.5,150C 336.153,150.436 333.819,150.936 331.5,151.5C 321.032,150.57 310.699,150.236 300.5,150.5C 300.2,145.901 300.533,141.401 301.5,137C 310.326,135.92 318.993,136.587 327.5,139C 328.71,140.039 329.71,141.206 330.5,142.5 Z"/></g>
<g><path style="opacity:1" fill="#f38fc9" d="M 453.5,141.5 C 450.6,149.617 444.933,152.45 436.5,150C 435.29,148.961 434.29,147.794 433.5,146.5C 438.33,148.76 443.33,149.093 448.5,147.5C 447.976,143.69 449.643,141.69 453.5,141.5 Z"/></g>
<g><path style="opacity:1" fill="#f37dc4" d="M 42.5,135.5 C 43.5375,136.93 44.2041,138.597 44.5,140.5C 44.427,142.027 45.0937,143.027 46.5,143.5C 49.1667,145.5 51.5,147.833 53.5,150.5C 51.8333,150.5 50.1667,150.5 48.5,150.5C 49.1667,152.5 49.8333,154.5 50.5,156.5C 47.5,154.167 44.8333,151.5 42.5,148.5C 42.4431,147.391 42.1098,146.391 41.5,145.5C 43.1826,146.661 45.016,147.661 47,148.5C 47.5,148.167 48,147.833 48.5,147.5C 46.5968,146.053 44.9301,144.386 43.5,142.5C 42.7766,140.218 42.4433,137.884 42.5,135.5 Z"/></g>
<g><path style="opacity:1" fill="#f094ca" d="M 352.5,146.5 C 354.607,147.3 356.774,147.967 359,148.5C 360.607,147.926 362.107,147.26 363.5,146.5C 363.923,149.243 362.756,150.576 360,150.5C 356.941,150.056 354.441,148.723 352.5,146.5 Z"/></g>
<g><path style="opacity:0.976" fill="#f094ca" d="M 258.5,145.5 C 260.292,145.366 261.958,145.699 263.5,146.5C 264.058,147.79 265.058,148.623 266.5,149C 276.161,149.5 285.828,149.666 295.5,149.5C 296.006,145.993 295.34,142.826 293.5,140C 287.138,139.347 280.805,139.513 274.5,140.5C 276.667,138.489 279.334,137.322 282.5,137C 287.167,136.333 291.833,136.333 296.5,137C 297.467,141.401 297.8,145.901 297.5,150.5C 286.495,150.667 275.495,150.5 264.5,150C 261.894,149.208 259.894,147.708 258.5,145.5 Z"/></g>
<g><path style="opacity:0.954" fill="#ee96cb" d="M 400.5,132.5 C 402.572,138.215 404.572,144.048 406.5,150C 403.604,150.72 400.604,151.22 397.5,151.5C 393.819,151.273 391.152,149.607 389.5,146.5C 391.423,146.795 393.09,147.628 394.5,149C 397.482,149.498 400.482,149.665 403.5,149.5C 402.379,143.889 401.379,138.223 400.5,132.5 Z"/></g>
<g><path style="opacity:1" fill="#fa66c4" d="M 53.5,150.5 C 53.8769,152.258 54.5435,153.925 55.5,155.5C 53.9547,156.452 52.288,156.785 50.5,156.5C 49.8333,154.5 49.1667,152.5 48.5,150.5C 50.1667,150.5 51.8333,150.5 53.5,150.5 Z"/></g>
<g><path style="opacity:0.964" fill="#f096cb" d="M 29.5,109.5 C 29.6259,132.322 29.2926,155.322 28.5,178.5C 28.5,179.167 28.5,179.833 28.5,180.5C 27.6236,180.631 26.9569,180.298 26.5,179.5C 26.8202,155.854 27.8202,132.521 29.5,109.5 Z"/></g>
<g><path style="opacity:1" fill="#f17ec2" d="M 53.5,150.5 C 56.5,152.833 59.1667,155.5 61.5,158.5C 59.857,158.52 58.5237,157.853 57.5,156.5C 57.1667,157.333 56.8333,158.167 56.5,159C 57.3784,160.8 58.045,162.633 58.5,164.5C 55.5,162.167 52.8333,159.5 50.5,156.5C 52.288,156.785 53.9547,156.452 55.5,155.5C 54.5435,153.925 53.8769,152.258 53.5,150.5 Z"/></g>
<g><path style="opacity:1" fill="#f86ac1" d="M 61.5,158.5 C 63.1667,159.5 64.5,160.833 65.5,162.5C 65.8841,164.665 65.2174,166.332 63.5,167.5C 62.2742,165.722 60.6075,164.722 58.5,164.5C 58.045,162.633 57.3784,160.8 56.5,159C 56.8333,158.167 57.1667,157.333 57.5,156.5C 58.5237,157.853 59.857,158.52 61.5,158.5 Z"/></g>
<g><path style="opacity:0.678" fill="#f9aedc" d="M 186.5,162.5 C 182.967,161.285 179.301,161.285 175.5,162.5C 175.611,161.883 175.944,161.383 176.5,161C 180.211,160.175 183.878,160.341 187.5,161.5C 187.376,162.107 187.043,162.44 186.5,162.5 Z"/></g>
<g><path style="opacity:1" fill="#f57bc5" d="M 101.5,139.5 C 101.392,141.783 100.559,143.783 99,145.5C 89.5,155 80,164.5 70.5,174C 69.5,174.667 68.5,174.667 67.5,174C 64.2956,170.964 61.2956,167.797 58.5,164.5C 60.6075,164.722 62.2742,165.722 63.5,167.5C 65.2174,166.332 65.8841,164.665 65.5,162.5C 66.7942,163.29 67.9609,164.29 69,165.5C 75.3685,158.964 81.8685,152.631 88.5,146.5C 87.8617,148.46 87.8617,150.293 88.5,152C 89.3317,152.688 89.9984,152.521 90.5,151.5C 89.6744,150.549 89.5078,149.549 90,148.5C 91.0113,149.337 92.1779,149.67 93.5,149.5C 93.5,148.167 93.5,146.833 93.5,145.5C 94.8333,145.5 96.1667,145.5 97.5,145.5C 97.9477,142.828 99.281,140.828 101.5,139.5 Z"/></g>
<g><path style="opacity:1" fill="#ec9acc" d="M 225.5,160.5 C 230.487,159.349 233.987,161.016 236,165.5C 236.667,168.5 236.667,171.5 236,174.5C 232.171,180.703 227.838,181.036 223,175.5C 221.776,170.043 222.609,165.043 225.5,160.5 Z M 227.5,163.5 C 231.771,163.34 233.771,165.507 233.5,170C 230.528,178.357 227.862,178.357 225.5,170C 225.482,167.59 226.149,165.423 227.5,163.5 Z"/></g>
<g><path style="opacity:0.447" fill="#eebedd" d="M 139.5,160.5 C 140.152,161.725 141.319,162.392 143,162.5C 144.681,162.392 145.848,161.725 146.5,160.5C 147.404,161.209 147.737,162.209 147.5,163.5C 144.391,163.264 141.391,163.597 138.5,164.5C 138.5,163.167 137.833,162.5 136.5,162.5C 136.973,161.094 137.973,160.427 139.5,160.5 Z"/></g>
<g><path style="opacity:1" fill="#e486bb" d="M 139.5,160.5 C 141.833,160.5 144.167,160.5 146.5,160.5C 145.848,161.725 144.681,162.392 143,162.5C 141.319,162.392 140.152,161.725 139.5,160.5 Z"/></g>
<g><path style="opacity:1" fill="#eb7ec1" d="M 200.5,162.5 C 197.167,162.5 193.833,162.5 190.5,162.5C 190.025,165.082 190.692,167.082 192.5,168.5C 193.833,168.5 195.167,168.5 196.5,168.5C 195.082,170.308 193.082,170.975 190.5,170.5C 190.025,173.082 190.692,175.082 192.5,176.5C 195.247,176.187 197.914,176.52 200.5,177.5C 196.555,178.491 192.555,178.824 188.5,178.5C 188.5,172.5 188.5,166.5 188.5,160.5C 192.971,159.911 196.971,160.577 200.5,162.5 Z"/></g>
<g><path style="opacity:1" fill="#f0a3d3" d="M 166.5,172.5 C 165.506,173.999 165.506,175.666 166.5,177.5C 164.213,173.878 161.547,170.545 158.5,167.5C 158.36,165.876 159.027,164.71 160.5,164C 159,161.833 157.833,162 157,164.5C 156.501,169.155 156.334,173.821 156.5,178.5C 155.51,172.69 155.177,166.69 155.5,160.5C 157.722,160.178 159.556,160.845 161,162.5C 163.062,165.723 164.896,169.057 166.5,172.5 Z"/></g>
<g><path style="opacity:0.392" fill="#ffcfec" d="M 200.5,162.5 C 197.713,163.477 194.713,163.81 191.5,163.5C 191.366,165.292 191.699,166.958 192.5,168.5C 190.692,167.082 190.025,165.082 190.5,162.5C 193.833,162.5 197.167,162.5 200.5,162.5 Z"/></g>
<g><path style="opacity:1" fill="#e674b9" d="M 169.5,178.5 C 168.209,178.737 167.209,178.404 166.5,177.5C 165.506,175.666 165.506,173.999 166.5,172.5C 166.461,173.756 166.961,174.756 168,175.5C 168.333,170.833 168.667,166.167 169,161.5C 169.499,167.157 169.666,172.824 169.5,178.5 Z"/></g>
<g><path style="opacity:1" fill="#ed9dcb" d="M 136.5,162.5 C 137.833,162.5 138.5,163.167 138.5,164.5C 138.414,165.496 138.748,166.329 139.5,167C 142.443,167.942 145.276,169.108 148,170.5C 148.667,172.833 148.667,175.167 148,177.5C 143.882,178.798 139.715,178.798 135.5,177.5C 135.709,176.914 136.043,176.414 136.5,176C 139.167,175.667 141.833,175.333 144.5,175C 144.957,174.586 145.291,174.086 145.5,173.5C 142.271,171.926 139.104,170.259 136,168.5C 135.211,166.288 135.378,164.288 136.5,162.5 Z"/></g>
<g><path style="opacity:0.724" fill="#f2a1d2" d="M 169.5,178.5 C 169.666,172.824 169.499,167.157 169,161.5C 168.667,166.167 168.333,170.833 168,175.5C 166.961,174.756 166.461,173.756 166.5,172.5C 167.483,168.702 167.817,164.702 167.5,160.5C 168.5,160.5 169.5,160.5 170.5,160.5C 170.823,166.69 170.49,172.69 169.5,178.5 Z"/></g>
<g><path style="opacity:0.91" fill="#ed94c9" d="M 186.5,162.5 C 184.031,163.317 181.365,163.817 178.5,164C 174.925,167.26 174.592,170.76 177.5,174.5C 179.988,176.388 182.988,177.055 186.5,176.5C 187.043,176.56 187.376,176.893 187.5,177.5C 184.232,178.487 180.898,178.82 177.5,178.5C 177.027,177.094 176.027,176.427 174.5,176.5C 172.983,174.538 172.316,172.205 172.5,169.5C 172.012,166.389 173.012,164.056 175.5,162.5C 179.301,161.285 182.967,161.285 186.5,162.5 Z"/></g>
<g><path style="opacity:1" fill="#f0a0d1" d="M 209.5,160.5 C 212.518,160.335 215.518,160.502 218.5,161C 222.365,167.524 220.365,171.191 212.5,172C 211.167,173.333 211.167,174.667 212.5,176C 215.226,176.182 217.893,176.682 220.5,177.5C 216.878,178.659 213.211,178.825 209.5,178C 206.517,171.984 208.517,168.65 215.5,168C 217.394,166.921 217.727,165.587 216.5,164C 214.19,163.503 211.857,163.337 209.5,163.5C 209.5,162.5 209.5,161.5 209.5,160.5 Z"/></g>
<g><path style="opacity:1" fill="#efa0d0" d="M 238.5,160.5 C 241.85,160.335 245.183,160.502 248.5,161C 252.331,167.551 250.331,171.218 242.5,172C 241.167,173.333 241.167,174.667 242.5,176C 245.226,176.182 247.893,176.682 250.5,177.5C 246.878,178.659 243.211,178.825 239.5,178C 237.604,176.192 237.104,174.025 238,171.5C 241.152,169.429 244.318,167.429 247.5,165.5C 247.291,164.914 246.957,164.414 246.5,164C 244.167,163.667 241.833,163.333 239.5,163C 238.748,162.329 238.414,161.496 238.5,160.5 Z"/></g>
<g><path style="opacity:0.882" fill="#e493c6" d="M 254.5,160.5 C 255.5,160.5 256.5,160.5 257.5,160.5C 257.5,166.5 257.5,172.5 257.5,178.5C 256.5,178.5 255.5,178.5 254.5,178.5C 254.5,174.167 254.5,169.833 254.5,165.5C 253.5,165.5 252.5,165.5 251.5,165.5C 251.5,164.5 251.5,163.5 251.5,162.5C 253.179,162.715 254.179,162.048 254.5,160.5 Z"/></g>
<g><path style="opacity:1" fill="#ee85c1" d="M 150.5,161.5 C 151.812,163.743 152.478,166.41 152.5,169.5C 152.167,172.167 151.833,174.833 151.5,177.5C 150.702,177.043 150.369,176.376 150.5,175.5C 149.487,170.807 149.487,166.14 150.5,161.5 Z"/></g>
<g><path style="opacity:0.392" fill="#fabfe3" d="M 150.5,161.5 C 151.209,160.596 152.209,160.263 153.5,160.5C 153.666,166.509 153.499,172.509 153,178.5C 152.259,179.641 151.425,179.641 150.5,178.5C 149.224,177.386 149.224,176.386 150.5,175.5C 150.369,176.376 150.702,177.043 151.5,177.5C 151.833,174.833 152.167,172.167 152.5,169.5C 152.478,166.41 151.812,163.743 150.5,161.5 Z"/></g>
<g><path style="opacity:0.387" fill="#fccdeb" d="M 196.5,168.5 C 198.549,168.706 198.883,169.539 197.5,171C 195.527,171.495 193.527,171.662 191.5,171.5C 191.366,173.292 191.699,174.958 192.5,176.5C 190.692,175.082 190.025,173.082 190.5,170.5C 193.082,170.975 195.082,170.308 196.5,168.5 Z"/></g>
<g><path style="opacity:1" fill="#ea78bc" d="M 158.5,167.5 C 159.08,171.649 158.414,175.316 156.5,178.5C 156.334,173.821 156.501,169.155 157,164.5C 157.833,162 159,161.833 160.5,164C 159.027,164.71 158.36,165.876 158.5,167.5 Z"/></g>
<g><path style="opacity:0.036" fill="#fdeffa" d="M 177.5,174.5 C 180.61,175.088 183.61,175.755 186.5,176.5C 182.988,177.055 179.988,176.388 177.5,174.5 Z"/></g>
<g><path style="opacity:0.314" fill="#f9d0f4" d="M 174.5,176.5 C 176.027,176.427 177.027,177.094 177.5,178.5C 175.973,178.573 174.973,177.906 174.5,176.5 Z"/></g>
<g><path style="opacity:0.527" fill="#f9b8e1" d="M 28.5,178.5 C 55.5,179.833 82.5,179.833 109.5,178.5C 109.5,179.167 109.5,179.833 109.5,180.5C 82.8333,180.5 56.1667,180.5 29.5,180.5C 29.1667,180.5 28.8333,180.5 28.5,180.5C 28.5,179.833 28.5,179.167 28.5,178.5 Z"/></g>
<g><path style="opacity:1" fill="#fa67c1" d="M 23.5,177.5 C 24.7384,179.214 25.405,181.214 25.5,183.5C 27.604,183.799 29.604,183.466 31.5,182.5C 30.7573,181.818 30.0906,181.151 29.5,180.5C 56.1667,180.5 82.8333,180.5 109.5,180.5C 109.833,180.5 110.167,180.5 110.5,180.5C 112.196,178.871 113.196,179.204 113.5,181.5C 113.5,182.5 113.5,183.5 113.5,184.5C 89.3275,184.169 65.3275,184.502 41.5,185.5C 35.4549,185.697 29.4549,185.363 23.5,184.5C 23.5,182.167 23.5,179.833 23.5,177.5 Z"/></g>
</svg>
